<?xml version="1.0" encoding="UTF-8"?>
<svg version="1.1" xmlns="http://www.w3.org/2000/svg" width="512" height="512">
<path d="M0 0 C2.20893339 0.00084765 4.41786763 0.00036843 6.62680054 -0.00132751 C12.58453446 -0.00218349 18.54208486 0.01537761 24.49977636 0.03639436 C30.74041135 0.05522778 36.98105118 0.05691684 43.22171021 0.06047058 C53.68364554 0.06871672 64.14551853 0.0874182 74.60742188 0.11425781 C85.37629872 0.14185597 96.14515736 0.16306125 106.9140625 0.17578125 C107.57947138 0.17656942 108.24488026 0.17735759 108.93045305 0.17816965 C112.26909602 0.18208517 115.60773911 0.18586941 118.94638228 0.18960536 C146.58034949 0.22091016 174.21424229 0.27363255 201.84814453 0.34057617 C200.98064306 5.7648594 199.70277411 11.0236715 198.30908203 16.33081055 C191.98873394 40.92828464 197.28140973 66.91465754 209.66845703 88.75854492 C212.94915202 94.29341407 216.81508258 99.33165045 220.84814453 104.34057617 C221.31349609 104.97092773 221.77884766 105.6012793 222.25830078 106.25073242 C235.54985147 123.44438974 258.61841289 134.15219525 279.59814453 137.65307617 C284.13857046 138.19735436 288.6770875 138.56810946 293.23876953 138.88354492 C294.48174805 138.97015381 295.72472656 139.0567627 297.00537109 139.14599609 C298.41254395 139.24231323 298.41254395 139.24231323 299.84814453 139.34057617 C299.94125344 149.93783682 300.01211561 160.53499848 300.05539322 171.13258648 C300.07617529 176.0546849 300.10431935 180.97650132 300.14990234 185.8984375 C300.19369747 190.6576746 300.21735198 195.41664222 300.2276535 200.17606544 C300.23498495 201.98236133 300.2492997 203.78864421 300.27106476 205.59482384 C300.45290756 221.32568122 298.85570651 234.14036538 287.84814453 246.34057617 C273.51824221 259.97334811 255.9407141 261.83102416 237.06567383 261.63012695 C235.44424372 261.62439218 233.82280785 261.62012834 232.20137024 261.61720276 C228.74259968 261.608676 225.28402261 261.59153868 221.8253231 261.56787491 C216.34793579 261.5320816 210.87075473 261.52607009 205.39326477 261.52560425 C189.82911824 261.52066955 174.26530809 261.49130945 158.70141602 261.39916992 C150.08028912 261.34838095 141.45971188 261.32980101 132.83844501 261.34675777 C127.40034606 261.35572508 121.96434322 261.32573266 116.52658212 261.26649785 C113.1399149 261.23922512 109.75413837 261.2498823 106.36746025 261.27108574 C104.8057986 261.27342609 103.24402274 261.26053697 101.68264389 261.23072624 C93.89066723 261.09024128 88.10336994 261.31549837 82.02912903 266.74899292 C80.61257652 268.2583592 79.21530962 269.78633449 77.84814453 271.34057617 C76.02993592 272.85887409 74.2001346 274.3636727 72.34814453 275.84057617 C68.75336803 278.74870997 65.26553825 281.72598949 61.84814453 284.84057617 C57.54607586 288.76144889 53.08534623 292.43670309 48.55908203 296.09448242 C45.95522833 298.251854 43.46041621 300.48801536 40.97314453 302.77807617 C37.08380518 306.31781198 33.06634214 309.62294494 28.91064453 312.84057617 C28.3545752 313.27426514 27.79850586 313.7079541 27.22558594 314.15478516 C21.55443462 318.4894508 16.82397277 319.07432996 9.84814453 318.34057617 C5.2156478 316.95950815 2.46326912 315.09765259 -0.58935547 311.34057617 C-2.63408071 307.4147037 -3.27831974 304.33842736 -3.26538086 299.93920898 C-3.26530533 299.07861877 -3.2652298 298.21802856 -3.26515198 297.33135986 C-3.25999069 296.4114325 -3.25482941 295.49150513 -3.24951172 294.54370117 C-3.24809677 293.59493103 -3.24668182 292.64616089 -3.245224 291.66864014 C-3.23963289 288.64258655 -3.22708199 285.61660734 -3.21435547 282.59057617 C-3.20933932 280.53719182 -3.20477661 278.48380632 -3.20068359 276.43041992 C-3.18966636 271.40044341 -3.1724078 266.3705224 -3.15185547 261.34057617 C-4.36711914 261.35290283 -5.58238281 261.36522949 -6.83447266 261.37792969 C-8.45589018 261.38790223 -10.0773096 261.39757027 -11.69873047 261.40698242 C-12.49649902 261.41588501 -13.29426758 261.4247876 -14.11621094 261.43395996 C-29.1832168 261.49936831 -43.44156781 257.09139791 -54.65185547 246.65307617 C-62.02247013 238.73604032 -66.29837335 229.58047304 -66.30575562 218.8094635 C-66.31013787 218.03540852 -66.31452012 217.26135353 -66.31903517 216.46384233 C-66.33242411 213.86163463 -66.33860236 211.25946079 -66.34472656 208.65722656 C-66.35262774 206.79450324 -66.3608967 204.93178146 -66.36950684 203.06906128 C-66.39573507 196.94213321 -66.41103981 190.8151983 -66.42529297 184.68823242 C-66.43065318 182.57763604 -66.43603069 180.4670397 -66.44142532 178.35644341 C-66.46305926 169.57297006 -66.4817935 160.78949854 -66.49304771 152.00600529 C-66.50926885 139.42923504 -66.54239626 126.85277465 -66.59944856 114.2761212 C-66.63821153 105.42838799 -66.6576882 96.58073741 -66.66296828 87.73292154 C-66.66661431 82.45182761 -66.67855525 77.17106409 -66.71107101 71.89006233 C-66.74126176 66.91511079 -66.74742429 61.94068765 -66.73568726 56.96566391 C-66.73546741 55.14687945 -66.74369822 53.3280697 -66.76134109 51.5093708 C-66.89371567 37.06884588 -64.91928189 26.31304983 -54.47998047 15.52807617 C-51.21824418 12.46335751 -47.92631586 9.74802877 -44.15185547 7.34057617 C-43.56275391 6.96288086 -42.97365234 6.58518555 -42.36669922 6.19604492 C-29.56823374 -1.05913615 -14.17985207 -0.0766858 0 0 Z M8.84814453 85.34057617 C8.09814453 88.84057617 8.09814453 88.84057617 8.84814453 92.34057617 C11.55042256 95.16141023 13.22045744 96.24470413 17.10716343 96.83835411 C18.35099765 96.83726458 19.59483187 96.83617504 20.87635803 96.83505249 C21.91983868 96.84229574 21.91983868 96.84229574 22.98439974 96.84968531 C25.30923954 96.86093329 27.63297372 96.84365595 29.95776367 96.82641602 C31.62686968 96.82856245 33.29597424 96.832441 34.96507263 96.83792114 C39.49397371 96.84761098 44.02248029 96.83231626 48.55133367 96.81201506 C53.29003145 96.79444321 58.02871707 96.79796915 62.7674408 96.79873657 C70.72417805 96.79686384 78.68076269 96.77950283 86.63745117 96.75219727 C95.83915009 96.72073598 105.04068193 96.71020147 114.24243075 96.71166837 C123.09243977 96.71288871 131.94239434 96.70268055 140.79238701 96.68608475 C144.55984357 96.67902042 148.32728087 96.67535845 152.09474373 96.67429733 C156.52953653 96.67228945 160.96418887 96.66008795 165.39893532 96.63996506 C167.02754608 96.63411974 168.65617301 96.63166338 170.28479385 96.63282013 C172.50565048 96.63380068 174.72611293 96.62249932 176.94691467 96.60800171 C178.19037187 96.60465002 179.43382906 96.60129833 180.71496677 96.59784508 C183.70720559 96.35214883 185.37351274 95.98448041 187.84814453 94.34057617 C189.55265768 91.98672467 189.86872424 90.75217036 189.72314453 87.84057617 C188.6175743 84.68180407 187.48140776 83.41407654 184.84814453 81.34057617 C181.58720179 80.73800701 181.58720179 80.73800701 177.86425781 80.8326416 C177.16129137 80.82640164 176.45832493 80.82016168 175.73405647 80.81373262 C173.37851547 80.79777754 171.02400571 80.81041578 168.66845703 80.82299805 C166.97979122 80.81757801 165.29113014 80.81045602 163.60247803 80.80175781 C159.01569803 80.78350732 154.42927752 80.79059905 149.84249115 80.80327415 C145.04504926 80.8133929 140.24763839 80.80401161 135.45019531 80.79772949 C127.39333564 80.7904498 119.33662258 80.80004922 111.27978516 80.8190918 C101.96157902 80.84086116 92.64372294 80.83381002 83.32552528 80.81178617 C75.32881483 80.79364133 67.33220984 80.79106937 59.33548546 80.80154085 C54.55776607 80.80778082 49.78021129 80.8085976 45.00250244 80.7953949 C40.51098472 80.78385031 36.01991885 80.79183648 31.52845001 80.81497192 C29.87887574 80.82026649 28.22926352 80.81873246 26.57970428 80.80992126 C24.32996452 80.79901102 22.08167806 80.81267235 19.83203125 80.8326416 C18.57252655 80.8341497 17.31302185 80.83565781 16.01535034 80.83721161 C12.26065772 81.43394555 11.07009892 82.30089718 8.84814453 85.34057617 Z M8.84814453 161.34057617 C8.09814453 164.84057617 8.09814453 164.84057617 8.84814453 168.34057617 C11.07028437 171.38109345 12.25926634 172.24750502 16.01535034 172.84114742 C17.90460739 172.84146135 17.90460739 172.84146135 19.83203125 172.84178162 C20.88648091 172.85008321 20.88648091 172.85008321 21.96223259 172.85855252 C24.31779203 172.87216607 26.67229315 172.85718708 29.02783203 172.84228516 C30.71649628 172.8460681 32.40515743 172.85156794 34.09381104 172.85865784 C38.68060499 172.87263301 43.2670247 172.86142828 47.85379791 172.84494662 C52.65123294 172.8311083 57.44864597 172.83755481 62.24609375 172.84107971 C70.30295858 172.8437828 78.35967451 172.83029776 86.41650391 172.80712891 C95.7346652 172.78051855 105.05257751 172.7787717 114.37076378 172.79051727 C123.33023645 172.80129215 132.28961896 172.79511026 141.24908447 172.78096199 C145.06400684 172.77519967 148.87886328 172.77528681 152.69378662 172.78002739 C157.18524576 172.78479565 161.67643186 172.77470181 166.16783905 172.75307274 C167.81741159 172.74750263 169.46701036 172.74704163 171.11658478 172.7520256 C173.36611329 172.75797047 175.61480477 172.74548964 177.86425781 172.72825623 C179.12376251 172.72582633 180.38326721 172.72339643 181.68093872 172.72089291 C185.08355579 172.31230809 186.46859895 171.76322034 188.84814453 169.34057617 C190.01924902 166.48097558 190.01924902 166.48097558 189.84814453 163.34057617 C188.07775004 160.59341231 186.78522609 158.80911695 183.84814453 157.34057617 C181.62975841 157.23744292 179.4081928 157.20102613 177.18742371 157.19340515 C176.49503878 157.18972846 175.80265386 157.18605178 175.08928758 157.18226367 C172.75784121 157.17120749 170.42643939 157.16737974 168.0949707 157.16357422 C166.42793129 157.15731106 164.76089328 157.15066439 163.09385681 157.1436615 C158.55659901 157.12623884 154.01935175 157.11569643 149.48206878 157.10745597 C146.64875781 157.10230881 143.81545014 157.09623297 140.98214149 157.08994484 C132.12147324 157.07088978 123.26081335 157.05665895 114.40012854 157.04833287 C104.16423932 157.03855634 93.9285661 157.01222733 83.69275302 156.97183198 C75.78611635 156.94169694 67.8795417 156.92686651 59.97284871 156.92355186 C55.24812548 156.9211985 50.52363293 156.91220109 45.79897118 156.88709068 C41.35431521 156.86385036 36.91004249 156.85956034 32.46534157 156.86985207 C30.83390658 156.87034851 29.20245298 156.86399599 27.57107544 156.85029602 C25.34352778 156.83263602 23.11736429 156.83965263 20.88981628 156.85282898 C19.0201685 156.84924645 19.0201685 156.84924645 17.11275005 156.84559155 C13.22083027 157.43569055 11.55268969 158.51569911 8.84814453 161.34057617 Z " fill="#E067FF" transform="translate(98.15185546875,120.659423828125)"/>
<path d="M0 0 C16.35243235 13.93246032 27.27310312 32.32370845 30.3125 53.6875 C32.31311411 78.82439199 27.67727662 102.80026025 11.3125 122.6875 C-3.62531009 139.95869186 -24.66633655 150.87984292 -47.58984375 152.59375 C-48.62818359 152.64015625 -48.62818359 152.64015625 -49.6875 152.6875 C-50.45191406 152.7390625 -51.21632813 152.790625 -52.00390625 152.84375 C-75.61388975 153.70884863 -97.23817041 145.50121988 -115.0625 130.3125 C-132.77184473 113.50019724 -141.22488686 89.1756934 -141.9375 65.125 C-141.23901712 43.14333303 -133.14469549 24.03298224 -118.6875 7.6875 C-117.89472656 6.77097656 -117.89472656 6.77097656 -117.0859375 5.8359375 C-86.5910927 -27.06244186 -33.85163526 -26.69523949 0 0 Z M-71.6875 18.6875 C-74.30314087 22.30553049 -75.05487573 24.76741469 -74.98046875 29.20703125 C-74.97080078 30.22861328 -74.96113281 31.25019531 -74.95117188 32.30273438 C-74.92603516 33.35783203 -74.90089844 34.41292969 -74.875 35.5 C-74.86146484 36.57443359 -74.84792969 37.64886719 -74.83398438 38.75585938 C-74.79872577 41.40025455 -74.74944366 44.04361748 -74.6875 46.6875 C-75.58674194 46.66393433 -75.58674194 46.66393433 -76.50415039 46.63989258 C-79.25266877 46.5770587 -82.00103542 46.53835765 -84.75 46.5 C-86.16442383 46.46229492 -86.16442383 46.46229492 -87.60742188 46.42382812 C-93.43578165 46.3629045 -97.60030227 46.74367297 -102.6875 49.6875 C-107.25993815 54.47773732 -106.16235497 60.38672025 -106.125 66.625 C-106.14498047 67.80513672 -106.16496094 68.98527344 -106.18554688 70.20117188 C-106.18490234 71.34005859 -106.18425781 72.47894531 -106.18359375 73.65234375 C-106.18544678 74.6899585 -106.1872998 75.72757324 -106.18920898 76.79663086 C-105.55065674 80.47599688 -104.33347628 82.08059753 -101.6875 84.6875 C-98.19066661 86.5673965 -95.3223343 86.92884309 -91.38671875 86.8828125 C-90.41025391 86.87636719 -89.43378906 86.86992187 -88.42773438 86.86328125 C-87.42033203 86.84652344 -86.41292969 86.82976562 -85.375 86.8125 C-83.83489258 86.79896484 -83.83489258 86.79896484 -82.26367188 86.78515625 C-79.73804101 86.76166201 -77.2128919 86.72881131 -74.6875 86.6875 C-74.7189209 87.68547607 -74.7189209 87.68547607 -74.75097656 88.70361328 C-74.83450609 91.73975302 -74.88627603 94.77565043 -74.9375 97.8125 C-74.97101563 98.85921875 -75.00453125 99.9059375 -75.0390625 100.984375 C-75.11517645 106.997377 -75.08352149 111.12700152 -70.6875 115.6875 C-66.1396385 118.62624849 -60.48732681 118.01809719 -55.25 118 C-53.8568457 118.02416992 -53.8568457 118.02416992 -52.43554688 118.04882812 C-47.14944238 118.05259048 -43.14495408 117.84974331 -38.6875 114.6875 C-36.07119341 111.07001593 -35.32012797 108.60736465 -35.39453125 104.16796875 C-35.40419922 103.14638672 -35.41386719 102.12480469 -35.42382812 101.07226562 C-35.44896484 100.01716797 -35.47410156 98.96207031 -35.5 97.875 C-35.51353516 96.80056641 -35.52707031 95.72613281 -35.54101562 94.61914062 C-35.57627423 91.97474545 -35.62555634 89.33138252 -35.6875 86.6875 C-35.05247559 86.70321045 -34.41745117 86.7189209 -33.76318359 86.73510742 C-30.8630477 86.7977859 -27.96305476 86.83659417 -25.0625 86.875 C-24.06347656 86.90013672 -23.06445312 86.92527344 -22.03515625 86.95117188 C-16.55423541 87.00561811 -12.28981753 87.0339801 -7.6875 83.6875 C-3.79142662 78.24096638 -4.13670286 73.29588235 -4.125 66.8125 C-4.08826172 65.74902344 -4.05152344 64.68554688 -4.01367188 63.58984375 C-3.97845918 57.2906835 -4.58753752 53.51022498 -9.00415039 48.89013672 C-12.32794537 46.51551539 -15.69454295 46.56559173 -19.671875 46.58984375 C-20.60644531 46.59306641 -21.54101562 46.59628906 -22.50390625 46.59960938 C-23.47199219 46.60798828 -24.44007813 46.61636719 -25.4375 46.625 C-26.42105469 46.62951172 -27.40460938 46.63402344 -28.41796875 46.63867188 C-30.84120791 46.65043517 -33.26432273 46.66687316 -35.6875 46.6875 C-35.64036865 45.69737915 -35.64036865 45.69737915 -35.59228516 44.68725586 C-35.46677731 41.66685924 -35.38928433 38.64701202 -35.3125 35.625 C-35.26222656 34.58666016 -35.21195312 33.54832031 -35.16015625 32.47851562 C-35.06054013 27.24866943 -35.10234368 23.64328167 -38.5234375 19.50390625 C-42.56625833 15.3700309 -46.63552773 15.51526251 -52.12304688 15.453125 C-53.07244141 15.44796875 -54.02183594 15.4428125 -55 15.4375 C-55.93779297 15.416875 -56.87558594 15.39625 -57.84179688 15.375 C-63.16831188 15.34497032 -67.19760596 15.48540503 -71.6875 18.6875 Z " fill="#B947FF" transform="translate(449.6875,92.3125)"/>
<path d="M0 0 C2.97 0 5.94 0 9 0 C9.01458252 0.76666992 9.02916504 1.53333984 9.04418945 2.32324219 C9.1186922 5.79933493 9.21534646 9.27446968 9.3125 12.75 C9.34633789 14.55984375 9.34633789 14.55984375 9.38085938 16.40625 C9.41630859 17.56640625 9.45175781 18.7265625 9.48828125 19.921875 C9.51446533 20.99018555 9.54064941 22.05849609 9.56762695 23.15917969 C10.06252311 26.41079556 10.54481853 27.80584308 13 30 C15.89377727 30.64403188 15.89377727 30.64403188 19.19921875 30.609375 C21.01196289 30.65771484 21.01196289 30.65771484 22.86132812 30.70703125 C24.7552832 30.72830078 24.7552832 30.72830078 26.6875 30.75 C27.96173828 30.77964844 29.23597656 30.80929688 30.54882812 30.83984375 C33.69928292 30.91064049 36.8489934 30.96329047 40 31 C40 34.3 40 37.6 40 41 C38.79670044 41.01401855 38.79670044 41.01401855 37.5690918 41.02832031 C33.94126361 41.08193742 30.31473708 41.16560298 26.6875 41.25 C25.42486328 41.26417969 24.16222656 41.27835938 22.86132812 41.29296875 C21.04858398 41.34130859 21.04858398 41.34130859 19.19921875 41.390625 C18.08377686 41.41157227 16.96833496 41.43251953 15.8190918 41.45410156 C12.94966332 41.75994358 12.94966332 41.75994358 11.14453125 43.65820312 C9.70927929 46.5948364 9.56832011 48.81253932 9.48828125 52.078125 C9.45283203 53.23828125 9.41738281 54.3984375 9.38085938 55.59375 C9.35830078 56.8003125 9.33574219 58.006875 9.3125 59.25 C9.27833984 60.47203125 9.24417969 61.6940625 9.20898438 62.953125 C9.12652838 65.96865846 9.05736799 68.98390194 9 72 C6.03 72 3.06 72 0 72 C-0.01981934 71.26362305 -0.03963867 70.52724609 -0.06005859 69.76855469 C-0.15537828 66.42867944 -0.26502996 63.08942361 -0.375 59.75 C-0.4059375 58.59113281 -0.436875 57.43226563 -0.46875 56.23828125 C-0.50742187 55.12324219 -0.54609375 54.00820312 -0.5859375 52.859375 C-0.6173584 51.83295898 -0.6487793 50.80654297 -0.68115234 49.74902344 C-1.00003151 46.99972833 -1.50284815 45.31057553 -3 43 C-5.6821281 41.65893595 -7.88398032 41.78549581 -10.8828125 41.68359375 C-12.63271484 41.62075195 -12.63271484 41.62075195 -14.41796875 41.55664062 C-16.25294922 41.49766602 -16.25294922 41.49766602 -18.125 41.4375 C-19.35605469 41.39431641 -20.58710938 41.35113281 -21.85546875 41.30664062 C-24.90352853 41.20031296 -27.9516719 41.09828219 -31 41 C-31 37.7 -31 34.4 -31 31 C-30.22809326 30.98018066 -29.45618652 30.96036133 -28.66088867 30.93994141 C-25.16941042 30.84478857 -21.67853848 30.73506953 -18.1875 30.625 C-16.97255859 30.5940625 -15.75761719 30.563125 -14.50585938 30.53125 C-12.76079102 30.47324219 -12.76079102 30.47324219 -10.98046875 30.4140625 C-9.90692139 30.3826416 -8.83337402 30.3512207 -7.72729492 30.31884766 C-4.7839235 30.18407693 -4.7839235 30.18407693 -2 28 C-0.96285478 24.88856433 -0.79968139 22.50531904 -0.68359375 19.23828125 C-0.64169922 18.12001953 -0.59980469 17.00175781 -0.55664062 15.84960938 C-0.51732422 14.68236328 -0.47800781 13.51511719 -0.4375 12.3125 C-0.39431641 11.13365234 -0.35113281 9.95480469 -0.30664062 8.74023438 C-0.20048824 5.82694117 -0.09843758 2.91356243 0 0 Z " fill="#B947FF" transform="translate(390,123)"/>
</svg>
