<?xml version="1.0" encoding="UTF-8"?>
<svg version="1.1" xmlns="http://www.w3.org/2000/svg" width="512" height="512">
<path d="M0 0 C1.52865496 -0.00302289 3.05730841 -0.00691307 4.5859592 -0.01159257 C8.77472711 -0.02186375 12.96340934 -0.01969298 17.15218425 -0.01541197 C21.67447883 -0.01294312 26.19675287 -0.02196097 30.71903992 -0.02944946 C39.57466027 -0.04219461 48.43025029 -0.04399033 57.28587827 -0.0416492 C64.4857219 -0.03986546 71.68555633 -0.04161688 78.88539886 -0.04587364 C80.4230645 -0.04676643 80.4230645 -0.04676643 81.99179409 -0.04767724 C84.07440005 -0.04888901 86.157006 -0.05010315 88.23961195 -0.05131962 C107.76830796 -0.06219472 127.2969867 -0.06003297 146.82568368 -0.05393478 C164.68086943 -0.0487672 182.53600059 -0.06001691 200.39117554 -0.07903299 C218.7338532 -0.09841817 237.07650506 -0.1066661 255.41919303 -0.10290974 C265.71354452 -0.10099853 276.00784957 -0.10347735 286.30219269 -0.11762428 C295.06721986 -0.12954779 303.83217202 -0.13093217 312.59720024 -0.11883412 C317.06652932 -0.1129519 321.53572124 -0.11182775 326.00504112 -0.12383652 C330.10227384 -0.13471724 334.19925526 -0.13156606 338.29647633 -0.11757483 C339.77288767 -0.11493389 341.24931883 -0.11727538 342.72571066 -0.1253107 C358.27179111 -0.20399848 371.43496177 2.43791932 383.1161499 13.18647766 C394.88164671 25.91046708 395.4743923 39.19766545 395.37469482 55.57173157 C395.37384761 57.52392056 395.37432553 59.47611051 395.37602234 61.42829895 C395.37688005 66.70448267 395.35929066 71.98046013 395.33830047 77.25659609 C395.31949618 82.77922286 395.31778027 88.30185482 395.31422424 93.82450867 C395.30491479 104.2719314 395.28031589 114.7192595 395.25017577 125.16664064 C395.21659751 137.06506088 395.20013714 148.96348572 395.18508947 160.86194158 C395.15376537 185.32824557 395.10102628 209.79446568 395.03411865 234.26069641 C392.36382195 231.70736388 390.79900521 229.20882433 389.03411865 225.94819641 C370.10830497 193.17230702 338.16012936 171.14299282 302.03411865 161.26069641 C265.89628067 152.12375177 226.61833845 157.55626257 194.47161865 176.51069641 C186.25090544 181.49788648 178.25603593 187.18290993 171.33314037 193.86946678 C167.90248464 196.71149006 164.69092741 196.95907745 160.34742737 196.87974548 C159.59304388 196.88598446 158.8386604 196.89222344 158.0614168 196.89865148 C155.54372035 196.91352606 153.02758717 196.8929563 150.50994873 196.87251282 C148.70114086 196.87605502 146.89233619 196.88183378 145.08354187 196.88967896 C141.19400544 196.901848 137.30490777 196.89840277 133.41538429 196.88284683 C127.26845038 196.85853521 121.121901 196.87002193 114.97496033 196.88652039 C104.15044808 196.9110066 93.32611084 196.90521447 82.50158691 196.89271545 C66.19251422 196.8741203 49.883474 196.87892378 33.57442588 196.91274965 C27.46021373 196.92428504 21.34628062 196.91979641 15.23208392 196.90272927 C11.43521033 196.89485116 7.63841862 196.89907005 3.84154701 196.90643883 C2.0770463 196.90725141 0.31253465 196.90287001 -1.45193863 196.89299583 C-3.85491139 196.88019566 -6.25717116 196.88561753 -8.66014099 196.89561462 C-9.36324423 196.88735645 -10.06634748 196.87909827 -10.79075688 196.87058985 C-13.66529325 196.89907096 -15.51451663 196.92711171 -17.86780262 198.66632652 C-19.2369994 200.65434985 -19.82291703 201.83030298 -19.96588135 204.26069641 C-18.19724546 207.95828819 -18.19724546 207.95828819 -14.96588135 210.26069641 C-12.74901221 210.36723251 -10.52887649 210.40740681 -8.30947876 210.41891479 C-7.61764956 210.42385277 -6.92582036 210.42879075 -6.21302664 210.43387836 C-3.88373982 210.44929494 -1.55448064 210.45762519 0.77484131 210.46601868 C2.44014226 210.47559394 4.10544077 210.48560381 5.77073669 210.49601746 C10.30144988 210.52311076 14.83217352 210.54409632 19.36292315 210.56401944 C24.09419199 210.58585175 28.82542842 210.61325389 33.55667114 210.64007568 C42.52036815 210.6900399 51.48408311 210.73496487 60.4478153 210.77809805 C70.65083283 210.82743859 80.85381784 210.8823685 91.05680394 210.93777764 C112.0492119 211.05165492 133.04165089 211.15848142 154.03411865 211.26069641 C153.5537767 212.01451599 153.07343475 212.76833557 152.57853699 213.54499817 C151.94827103 214.53463562 151.31800507 215.52427307 150.66864014 216.54389954 C150.04392319 217.52459412 149.41920624 218.5052887 148.77555847 219.51570129 C141.52073426 230.95132877 136.05203575 242.69535046 131.03411865 255.26069641 C130.36749866 256.92738175 129.70083713 258.59405047 129.03411865 260.26069641 C128.28959285 260.26308476 127.54506704 260.26547312 126.77797985 260.26793385 C108.67609158 260.32702651 90.57434034 260.40253959 72.47259808 260.49641132 C63.71878448 260.54140922 54.96501193 260.58081458 46.21112061 260.60713196 C38.58272392 260.63007979 30.9544567 260.66344157 23.32616264 260.70939797 C19.2856613 260.73337378 15.24528853 260.75207389 11.20471764 260.75831032 C7.40354516 260.76434161 3.60270183 260.7842698 -0.198349 260.81497192 C-1.59515285 260.82378371 -2.99199966 260.82746826 -4.38883018 260.82570457 C-6.29271014 260.82405932 -8.19657624 260.84247026 -10.10035706 260.86196899 C-11.16687154 260.86657796 -12.23338602 260.87118692 -13.33221912 260.87593555 C-15.97623117 261.05819622 -15.97623117 261.05819622 -17.80513287 262.56686687 C-19.77898285 265.44721989 -19.38580038 267.90134415 -18.96588135 271.26069641 C-16.77727186 273.48707301 -15.38914388 274.19989844 -12.28725815 274.64545727 C-11.25853718 274.65006623 -10.22981621 274.6546752 -9.16992188 274.65942383 C-7.98644165 274.67196198 -6.80296143 274.68450012 -5.58361816 274.69741821 C-4.28889587 274.69598312 -2.99417358 274.69454803 -1.66021729 274.69306946 C-0.28032554 274.70208748 1.09955818 274.71241481 2.47943115 274.72395325 C6.22289768 274.75154495 9.9662123 274.76081065 13.70976734 274.76680732 C17.62293843 274.77618538 21.53599579 274.80238829 25.44909668 274.82681274 C32.85796129 274.87049712 40.26680387 274.89903214 47.67575812 274.92213613 C56.11106408 274.94917744 64.54625574 274.99308958 72.98148012 275.03842485 C90.33230081 275.13129887 107.68314618 275.20296694 125.03411865 275.26069641 C124.99989807 276.05194916 124.96567749 276.8432019 124.93041992 277.65843201 C124.77650032 281.29905899 124.63181684 284.93999926 124.48724365 288.58100891 C124.43326416 289.82535706 124.37928467 291.0697052 124.32366943 292.35176086 C123.76618241 306.75665867 125.04796342 320.50583923 128.44818115 334.51069641 C129.03411865 337.26069641 129.03411865 337.26069641 129.03411865 341.26069641 C128.38040283 341.22814758 127.72668701 341.19559875 127.05316162 341.1620636 C112.18146855 340.22988011 112.18146855 340.22988011 99.05023193 346.0136261 C96.82256267 348.13060784 94.69414708 350.31321378 92.62298584 352.58345032 C89.96879677 355.3852756 86.99597874 357.79383994 84.03411865 360.26069641 C82.86587952 361.25885894 81.69920981 362.25886125 80.53411865 363.26069641 C78.20078532 365.26069641 75.86745199 367.26069641 73.53411865 369.26069641 C72.95605469 369.75626038 72.37799072 370.25182434 71.78240967 370.7624054 C70.62176155 371.75708456 69.4607941 372.75139122 68.29949951 373.74531555 C65.28795281 376.32368009 62.28309839 378.90929967 59.2880249 381.50679016 C58.66991943 382.04110657 58.05181396 382.57542297 57.41497803 383.12593079 C56.24620665 384.13652258 55.07937174 385.14936067 53.91497803 386.16499329 C43.73098223 394.95526097 43.73098223 394.95526097 38.90911865 395.82319641 C35.28528753 395.11418597 33.59618348 393.89596309 31.03411865 391.26069641 C30.03998205 388.34230087 29.91216642 385.65130797 29.92059326 382.5839386 C29.92070656 381.2029599 29.92070656 381.2029599 29.92082214 379.79408264 C29.92598343 378.80853394 29.93114471 377.82298523 29.9364624 376.80757141 C29.93787735 375.79221313 29.9392923 374.77685486 29.94075012 373.73072815 C29.94634349 370.49068749 29.9588948 367.25071616 29.97161865 364.01069641 C29.97663451 361.81278074 29.98119727 359.61486399 29.98529053 357.41694641 C29.99631075 352.03150613 30.01304232 346.64610622 30.03411865 341.26069641 C29.4866951 341.26957886 28.93927155 341.2784613 28.3752594 341.28761292 C22.61525037 341.37693908 16.85544185 341.43677927 11.09490967 341.48042297 C8.9525756 341.50038911 6.81029497 341.52757179 4.66815186 341.56245422 C-13.31862776 341.84775887 -27.39212012 341.03978037 -41.18463135 328.19429016 C-48.13503684 320.94563966 -53.07775391 311.75989524 -53.10010242 301.5669241 C-53.10456027 300.62174339 -53.10901811 299.67656268 -53.11361104 298.70274013 C-53.11342668 297.66744783 -53.11324232 296.63215552 -53.11305237 295.56549072 C-53.11672906 294.46319156 -53.12040574 293.36089239 -53.12419385 292.22519022 C-53.13523865 288.51818956 -53.13907591 284.81121693 -53.1428833 281.10420227 C-53.14914738 278.45154147 -53.15578136 275.79888368 -53.16279602 273.14622498 C-53.18254739 265.17595327 -53.19262544 257.20568033 -53.20152381 249.23539028 C-53.20590932 245.47965512 -53.21127549 241.72392138 -53.21651268 237.96818733 C-53.23352444 225.4788171 -53.24801749 212.98944775 -53.25526142 200.50006771 C-53.25717124 197.25987688 -53.25909158 194.01968605 -53.26104736 190.77949524 C-53.2615311 189.97418606 -53.26201484 189.16887687 -53.26251324 188.33916438 C-53.27080934 175.30058879 -53.29613937 162.26210506 -53.32862804 149.22356956 C-53.36173013 135.82935099 -53.37971307 122.43517905 -53.38290566 109.04091936 C-53.38506796 101.52374198 -53.39377534 94.00669853 -53.41936684 86.48956108 C-53.44111702 80.0860446 -53.44910317 73.68269458 -53.43940005 67.27914535 C-53.43486759 64.01490163 -53.43887976 60.75107129 -53.4561615 57.48686028 C-53.47388928 53.93921537 -53.46676871 50.39243366 -53.45362854 46.8447876 C-53.47008241 45.31527172 -53.47008241 45.31527172 -53.48686868 43.75485653 C-53.38158145 31.93354571 -48.97458001 21.7505604 -40.96588135 13.10054016 C-29.13401083 1.79687815 -15.70383909 -0.04399291 0 0 Z M-19.96588135 72.26069641 C-20.79921468 75.76069641 -20.79921468 75.76069641 -19.96588135 79.26069641 C-17.17085018 82.23163871 -15.49449104 83.18547505 -11.42854309 83.76406097 C-10.03954956 83.78595531 -8.65010483 83.78600168 -7.26104736 83.76863098 C-6.49259522 83.77487094 -5.72414309 83.78111091 -4.93240452 83.78753996 C-2.36121874 83.8034762 0.20901984 83.79086371 2.7802124 83.77827454 C4.62503614 83.78369539 6.46985555 83.79081784 8.31466675 83.79951477 C13.32291902 83.81775542 18.33084182 83.81067749 23.33909988 83.79799843 C28.57916403 83.78787464 33.81919989 83.79726238 39.05926514 83.80354309 C47.85920275 83.8108213 56.65900611 83.80122721 65.45892334 83.78218079 C75.63428857 83.76041175 85.80933321 83.76746299 95.98469067 83.78948641 C104.71943246 83.80763544 113.45407772 83.81020115 122.18883228 83.79973173 C127.40642871 83.79349408 132.62387442 83.79266868 137.84146118 83.80587769 C142.74665212 83.81742829 147.65142953 83.80942482 152.55657578 83.78630066 C154.35731189 83.78100935 156.15808278 83.78253455 157.95880508 83.79135132 C160.41610218 83.80227401 162.87207226 83.78858397 165.32928467 83.76863098 C166.04280814 83.77755387 166.75633162 83.78647676 167.49147701 83.79567003 C170.99668946 83.74041831 172.96693673 83.30209012 175.97660828 81.4477005 C178.35217537 79.32177047 178.35217537 79.32177047 178.65911865 75.76069641 C178.35217537 72.19962235 178.35217537 72.19962235 175.97660828 70.07369232 C172.35219914 67.84053612 169.45739674 67.7011382 165.32928467 67.75276184 C164.56083253 67.74652188 163.79238039 67.74028192 163.00064182 67.73385286 C160.42945605 67.71791662 157.85921747 67.73052911 155.2880249 67.74311829 C153.44320117 67.73769743 151.59838176 67.73057498 149.75357056 67.72187805 C144.74531828 67.7036374 139.73739548 67.71071533 134.72913742 67.72339439 C129.48907327 67.73351818 124.24903742 67.72413044 119.00897217 67.71784973 C110.20903455 67.71057153 101.4092312 67.72016561 92.60931396 67.73921204 C82.43394874 67.76098107 72.2589041 67.75392983 62.08354664 67.73190641 C53.34880484 67.71375739 44.61415958 67.71119167 35.87940502 67.72166109 C30.6618086 67.72789874 25.44436288 67.72872414 20.22677612 67.71551514 C15.32158519 67.70396454 10.41680777 67.711968 5.51166153 67.73509216 C3.71092541 67.74038347 1.91015453 67.73885827 0.10943222 67.7300415 C-2.34786488 67.71911881 -4.80383495 67.73280886 -7.26104736 67.75276184 C-7.97457084 67.74383895 -8.68809431 67.73491607 -9.42323971 67.72572279 C-14.17315743 67.80059447 -16.70342559 68.79291118 -19.96588135 72.26069641 Z M-19.96588135 136.26069641 C-21.12353985 138.14026885 -21.12353985 138.14026885 -20.96588135 140.26069641 C-19.32511642 143.70630275 -18.18075692 145.11744603 -14.96588135 147.26069641 C-12.71419103 147.56292289 -12.71419103 147.56292289 -10.17537117 147.51796532 C-8.68711018 147.52763866 -8.68711018 147.52763866 -7.16878331 147.53750741 C-6.07590311 147.53441021 -4.98302292 147.53131301 -3.85702515 147.52812195 C-2.69826083 147.53265306 -1.53949651 147.53718417 -0.34561813 147.54185259 C2.87604041 147.5523457 6.0975591 147.55381854 9.31922936 147.55146384 C12.79171372 147.55105645 16.2641645 147.56208738 19.7366333 147.57157898 C26.54185086 147.58820681 33.34703378 147.59368933 40.15226994 147.59480374 C45.68276756 147.59575337 51.21325372 147.5998594 56.74374771 147.60620499 C72.41655883 147.62382226 88.08934253 147.6330431 103.76216362 147.63154404 C104.60746054 147.63146413 105.45275746 147.63138421 106.32366943 147.63130188 C107.16999597 147.63122012 108.01632251 147.63113836 108.88829531 147.63105412 C122.60674307 147.63024108 136.32508106 147.649382 150.04349707 147.67757861 C164.12244853 147.70628841 178.20134643 147.72011996 192.28032792 147.71839106 C200.18743976 147.7177265 208.09443655 147.72324766 216.00152206 147.74474716 C222.73352317 147.76293396 229.46535706 147.76732701 236.19737206 147.75372832 C239.63298149 147.74718588 243.06826989 147.74712679 246.50384903 147.76443481 C250.22662099 147.7797868 253.94854255 147.77064462 257.67129517 147.75517273 C258.75971392 147.76545986 259.84813267 147.77574698 260.9695338 147.78634584 C265.45813392 147.74495347 268.25553364 147.70562414 272.20523262 145.44854164 C274.33061651 143.27392149 274.33061651 143.27392149 274.65911865 139.76069641 C274.33080848 136.24733071 274.33080848 136.24733071 272.20439148 134.07369232 C267.44700459 131.35306749 263.07689733 131.70850142 257.68475342 131.75276184 C256.52428025 131.74652188 255.36380709 131.74028192 254.16816807 131.73385286 C250.95086472 131.72065857 247.73416499 131.72540677 244.5168767 131.73779774 C241.0457745 131.74684477 237.57475417 131.73288026 234.10366821 131.72187805 C227.3053579 131.70408444 220.50722415 131.7079365 213.70890689 131.71952862 C208.18416821 131.72855938 202.65947905 131.72978849 197.13473511 131.72543335 C196.34865358 131.72482042 195.56257205 131.72420749 194.75266987 131.72357598 C193.15579818 131.72229709 191.55892651 131.72100024 189.96205485 131.71968561 C174.98549537 131.70827735 160.0090338 131.72139736 145.03249037 131.74288708 C132.17979399 131.7607583 119.32724211 131.75765426 106.47454834 131.73921204 C91.55186426 131.71780964 76.629266 131.70937601 61.70656872 131.72166109 C60.11554656 131.7229353 58.52452438 131.72419278 56.9335022 131.72543335 C55.75925897 131.726359 55.75925897 131.726359 54.56129366 131.72730336 C49.04270307 131.73075816 43.52416688 131.72492512 38.00558472 131.71551514 C31.28093336 131.70430077 24.55646878 131.70732322 17.83183885 131.72863811 C14.40027857 131.73915628 10.96902979 131.74325771 7.53747177 131.7300415 C3.81916243 131.71915449 0.10173653 131.73276848 -3.61651611 131.75276184 C-4.70357062 131.74383895 -5.79062513 131.73491607 -6.91062069 131.72572279 C-12.48137817 131.78405553 -16.04086973 131.83544772 -19.96588135 136.26069641 Z " fill="#A900FF" transform="translate(84.96588134765625,41.73930358886719)"/>
<path d="M0 0 C5.70624407 5.27343514 9.22452329 12.55993232 9.98828125 20.28515625 C10.23951585 29.26348738 8.33385026 37.0063136 2.75 44.1875 C-3.36761298 50.46031669 -10.58883879 54.05763162 -19.34594727 54.48413086 C-29.67393175 54.56249189 -36.87372375 51.89826284 -44.45703125 44.875 C-51.12026119 37.4423775 -52.6322549 29.97911229 -52.5234375 20.26171875 C-51.81196562 11.44963126 -47.67943703 4.77851171 -41.25 -1.125 C-28.77924265 -11.31420507 -12.2046671 -9.6905971 0 0 Z " fill="#C500FF" transform="translate(373.25,318.125)"/>
<path d="M0 0 C2.4375 1.625 2.4375 1.625 4 4 C4.5625 7.4375 4.5625 7.4375 4 11 C-0.20637352 16.23596703 -5.91494087 19.10467309 -11.6875 22.375 C-12.730271 22.97425293 -13.77304199 23.57350586 -14.84741211 24.19091797 C-17.07125839 25.46834472 -19.29698422 26.74250403 -21.52441406 28.01367188 C-25.06256591 30.03311586 -28.59078473 32.06950021 -32.1171875 34.109375 C-37.53579622 37.24290533 -42.95503517 40.37527739 -48.38378906 43.49121094 C-49.99004526 44.4175513 -51.59202878 45.35140967 -53.18652344 46.29785156 C-57.04985023 48.57861075 -59.46008106 49.78955112 -64 49 C-66.875 47.5625 -66.875 47.5625 -69 45 C-69.78730839 41.82708798 -70.02522849 39.11774614 -69 36 C-63.75007961 30.56747369 -56.7854095 27.28330214 -50.25 23.625 C-48.38388119 22.57157181 -46.51896305 21.51603743 -44.65402222 20.46052551 C-43.37393632 19.73631774 -42.09343514 19.01284354 -40.81253052 18.29008484 C-33.97231323 14.42879343 -27.17272405 10.49796096 -20.375 6.5625 C-18.21644411 5.31328654 -16.057616 4.06454327 -13.8984375 2.81640625 C-12.99786621 2.29506104 -12.09729492 1.77371582 -11.16943359 1.23657227 C-6.9383613 -1.17512942 -4.86037896 -1.08939528 0 0 Z " fill="#B400FF" transform="translate(309,361)"/>
<path d="M0 0 C3.11279364 1.73444459 6.17322051 3.53936077 9.22802734 5.37402344 C10.95100869 6.39006174 12.67400262 7.40607938 14.39772034 8.42086792 C15.58861529 9.12301976 16.77857821 9.82675461 17.96763611 10.53201294 C22.17618065 13.02812502 26.40827364 15.47950964 30.65771484 17.90527344 C31.24366928 18.24029877 31.82962372 18.5753241 32.43333435 18.92050171 C35.24539292 20.52812687 38.05874398 22.13343189 40.8737793 23.73583984 C55.65083294 32.21963463 55.65083294 32.21963463 57.41552734 35.74902344 C57.91065415 40.12264358 57.90776601 42.06857588 55.29052734 45.68652344 C51.84201859 48.16045363 50.57364227 48.15588898 46.41552734 47.74902344 C43.52563477 46.53076172 43.52563477 46.53076172 40.52099609 44.81933594 C39.40885742 44.19365723 38.29671875 43.56797852 37.15087891 42.92333984 C35.9680326 42.24063119 34.78542002 41.55751744 33.60302734 40.87402344 C32.3832001 40.18083401 31.1628182 39.48861974 29.94189453 38.79736328 C26.42264333 36.79909521 22.91787249 34.77677896 19.41552734 32.74902344 C18.5313916 32.23855469 17.64725586 31.72808594 16.73632812 31.20214844 C12.58717883 28.8001456 8.45863084 26.36613119 4.34619141 23.90185547 C2.28888329 22.67340214 0.22388276 21.45860325 -1.84228516 20.24511719 C-3.21483559 19.43418089 -4.58723727 18.62299274 -5.95947266 17.81152344 C-6.58499023 17.44559082 -7.21050781 17.0796582 -7.85498047 16.70263672 C-13.78064555 13.17529792 -13.78064555 13.17529792 -15.58447266 10.74902344 C-16.2318715 3.95133558 -16.2318715 3.95133558 -14.27197266 0.31152344 C-9.92430168 -3.71409784 -4.82349503 -2.33474292 0 0 Z " fill="#D500FF" transform="translate(406.58447265625,362.2509765625)"/>
<path d="M0 0 C3.63525215 2.60789828 4.83397068 4.0702358 5.625 8.5 C4.8615037 12.77557925 3.30205692 14.42065743 0 17 C-3.80703281 19.45076781 -7.73917925 21.66110771 -11.6875 23.875 C-13.42329091 24.86132318 -15.15907379 25.84766081 -16.89437866 26.83483887 C-18.70289154 27.8625285 -20.51328469 28.88685296 -22.32373047 29.91113281 C-25.99009962 31.98952586 -29.63959491 34.09630638 -33.28515625 36.2109375 C-33.87298386 36.55168304 -34.46081146 36.89242859 -35.06645203 37.24349976 C-37.893423 38.8825434 -40.71972335 40.5227381 -43.5456543 42.16357422 C-45.07766479 43.04940186 -45.07766479 43.04940186 -46.640625 43.953125 C-47.53297852 44.47036133 -48.42533203 44.98759766 -49.34472656 45.52050781 C-57.40549771 50.01189005 -57.40549771 50.01189005 -61.125 49.9375 C-64.57772802 48.81161043 -65.97708097 48.03437855 -68 45 C-68.87078652 39.51404494 -68.87078652 39.51404494 -68 37 C-62.91811832 31.87505153 -56.48909529 28.65038004 -50.25 25.125 C-48.52308341 24.1396504 -46.7961728 23.15429015 -45.0696106 22.1683197 C-43.27032326 21.14165119 -41.46965391 20.11743494 -39.66894531 19.09326172 C-35.98636956 16.99575835 -32.3159907 14.87754341 -28.6484375 12.75390625 C-28.05562988 12.41079407 -27.46282227 12.06768188 -26.85205078 11.71417236 C-23.99379175 10.05956191 -21.13598167 8.40417759 -18.27832031 6.74853516 C-17.25061523 6.15476074 -16.22291016 5.56098633 -15.1640625 4.94921875 C-14.26123535 4.42674561 -13.3584082 3.90427246 -12.42822266 3.3659668 C-5.13950032 -0.73421433 -5.13950032 -0.73421433 0 0 Z " fill="#D500FF" transform="translate(459,273)"/>
<path d="M0 0 C2.88989258 1.21826172 2.88989258 1.21826172 5.89453125 2.9296875 C7.00666992 3.55536621 8.11880859 4.18104492 9.26464844 4.82568359 C10.44749474 5.50839225 11.63010732 6.191506 12.8125 6.875 C14.03232725 7.56818943 15.25270915 8.26040369 16.47363281 8.95166016 C19.99288402 10.94992822 23.49765485 12.97224448 27 15 C27.88413574 15.51046875 28.76827148 16.0209375 29.67919922 16.546875 C33.82907616 18.94929908 37.95665596 21.38607993 42.06933594 23.8515625 C44.12316434 25.07326316 46.18924282 26.27219673 48.2578125 27.46875 C49.63028997 28.27069364 51.00268888 29.07277173 52.375 29.875 C53.00051758 30.23255371 53.62603516 30.59010742 54.27050781 30.95849609 C57.57907352 32.90953609 60.08515678 34.62718843 62 38 C62.49074537 41.92596294 62.63707739 44.0688869 60.375 47.375 C57.46263817 49.36766862 55.50984058 49.72007406 52 50 C49.38671875 49.13671875 49.38671875 49.13671875 46.6875 47.6875 C45.63175781 47.12289062 44.57601562 46.55828125 43.48828125 45.9765625 C38.29743418 43.06141823 33.17090585 40.03850783 28.05859375 36.98828125 C24.19924754 34.69351352 20.31076109 32.45436572 16.41015625 30.23046875 C15.24753893 29.5663593 14.08494137 28.90221524 12.92236328 28.23803711 C10.64625881 26.93804639 8.36691983 25.64437755 6.08544922 24.35375977 C-7.90937827 16.35079332 -7.90937827 16.35079332 -11 13 C-11.86779992 9.74278303 -11.93088764 7.24885953 -11 4 C-7.65218604 -0.03706978 -5.06949715 -0.43394057 0 0 Z " fill="#B400FF" transform="translate(251,273)"/>
<path d="M0 0 C2.45908295 3.68862443 2.26964769 5.55835637 2.30639648 9.96240234 C2.31888176 11.01902824 2.31888176 11.01902824 2.33161926 12.09700012 C2.35572318 14.42670207 2.36449175 16.75612406 2.37109375 19.0859375 C2.38005991 20.70635055 2.38918176 22.32676274 2.39845276 23.94717407 C2.41494643 27.34501152 2.42264352 30.74275038 2.42553711 34.140625 C2.43092093 38.49105536 2.46859821 42.84055717 2.51428127 47.19072533 C2.54404934 50.5382321 2.5512606 53.88551522 2.55226326 57.23314285 C2.55646624 58.83671954 2.56890382 60.44029685 2.58978081 62.04374313 C2.61669202 64.28945585 2.61187301 66.53301604 2.59936523 68.77880859 C2.60443588 70.05549408 2.60950653 71.33217957 2.61473083 72.64755249 C1.83682494 76.88987861 0.34862728 78.36684095 -3 81 C-6.9363755 81.73807041 -8.43925798 81.36136708 -11.8125 79.1875 C-15.43535562 75.56464438 -15.13329744 72.31321253 -15.16113281 67.40478516 C-15.16609772 66.73938217 -15.17106262 66.07397919 -15.17617798 65.38841248 C-15.19077477 63.1886186 -15.19759727 60.98889683 -15.203125 58.7890625 C-15.20887831 57.25833128 -15.21463602 55.72760008 -15.22039795 54.1968689 C-15.23090074 50.98736231 -15.23674819 47.77788072 -15.24023438 44.56835938 C-15.24571894 40.46031743 -15.26974894 36.35260696 -15.29820633 32.24466896 C-15.31685016 29.08247926 -15.32203922 25.92036914 -15.32357025 22.75812912 C-15.32659316 21.24389203 -15.33460953 19.72965622 -15.34775543 18.21547318 C-15.36485381 16.09472834 -15.36292704 13.97479013 -15.35644531 11.85400391 C-15.36009094 10.64837799 -15.36373657 9.44275208 -15.36749268 8.20059204 C-14.96327184 4.68012459 -14.10985049 2.81792157 -12 0 C-7.67364668 -2.76405907 -4.62047599 -1.83075464 0 0 Z " fill="#C500FF" transform="translate(358,389)"/>
<path d="M0 0 C2.65586853 1.57446289 2.65586853 1.57446289 5 4 C5.62818909 7.26342773 5.62818909 7.26342773 5.63110352 11.18359375 C5.63825882 11.89951691 5.64541412 12.61544006 5.65278625 13.35305786 C5.6696697 15.71519142 5.65027562 18.07542591 5.62890625 20.4375 C5.629735 22.08130042 5.63219459 23.72510077 5.63621521 25.36889648 C5.63907294 28.81226578 5.62437531 32.25498451 5.59692383 35.69824219 C5.56284038 40.1103698 5.56885909 44.52133416 5.5875864 48.93351746 C5.59815884 52.327369 5.58921651 55.7209502 5.57420158 59.11477661 C5.56902105 60.74145708 5.56950004 62.3681658 5.57574654 63.99484253 C5.58120199 66.2693138 5.56081645 68.54212429 5.53344727 70.81640625 C5.52724869 72.11006104 5.52105011 73.40371582 5.5146637 74.73657227 C4.91660449 78.52880203 4.02062514 79.71217046 1 82 C-1.74089228 82.72804951 -4.23021206 82.57443241 -7 82 C-9.96858157 79.79259319 -10.82865791 78.51402627 -12 75 C-12.10458071 72.83405204 -12.1486516 70.66501739 -12.16113281 68.49658203 C-12.16609772 67.84093262 -12.17106262 67.1852832 -12.17617798 66.50976562 C-12.19077353 64.34243721 -12.19759706 62.17518197 -12.203125 60.0078125 C-12.20887842 58.49950153 -12.21463613 56.99119058 -12.22039795 55.48287964 C-12.23090039 52.32045145 -12.23674806 49.15804864 -12.24023438 45.99560547 C-12.24571881 41.94809551 -12.26974863 37.90092199 -12.29820633 33.85351753 C-12.31685148 30.73765083 -12.32203929 27.62186489 -12.32357025 24.50594711 C-12.32659288 23.01403844 -12.33460828 21.52213106 -12.34775543 20.03027725 C-12.36485658 17.94066171 -12.36292641 15.85186462 -12.35644531 13.76220703 C-12.36009094 12.57434601 -12.36373657 11.38648499 -12.36749268 10.16262817 C-11.9588543 6.64590162 -11.12293558 4.80771711 -9 2 C-5.48746854 -0.34168764 -4.13530644 -0.49623677 0 0 Z " fill="#C400FF" transform="translate(355,213)"/>
<path d="M0 0 C2.9375 2.0625 2.9375 2.0625 5 5 C6.01308622 11.81452015 3.15877365 16.13810037 -0.25 21.75 C-0.74113281 22.59949219 -1.23226563 23.44898438 -1.73828125 24.32421875 C-4.11618967 28.33812816 -5.97852191 31.46824787 -10 34 C-13.77762603 34.56262515 -15.48999479 34.29466967 -18.8125 32.375 C-21.5294784 29.42513773 -21.79620426 27.98112602 -22 24 C-20.7421875 20.6328125 -20.7421875 20.6328125 -18.875 17.125 C-18.55241211 16.51366211 -18.22982422 15.90232422 -17.89746094 15.27246094 C-9.15749308 -1.10521468 -9.15749308 -1.10521468 0 0 Z " fill="#BC00FF" transform="translate(320,394)"/>
<path d="M0 0 C5.11798497 3.18922369 7.49169621 7.66818969 10.3125 12.8125 C10.9940918 13.98522461 10.9940918 13.98522461 11.68945312 15.18164062 C14.34619374 19.96377373 15.64884657 23.38854671 15 29 C14 31.375 14 31.375 12 33 C8.56245686 33.99258146 5.44384316 34.55293819 2.04541016 33.25146484 C-0.42031012 31.74283723 -1.31670171 30.35035772 -2.76171875 27.859375 C-3.48004883 26.62380859 -3.48004883 26.62380859 -4.21289062 25.36328125 C-4.69951172 24.50089844 -5.18613281 23.63851563 -5.6875 22.75 C-6.18572266 21.90308594 -6.68394531 21.05617188 -7.19726562 20.18359375 C-9.67711952 15.85646741 -11.82109415 12.10270597 -12 7 C-9.40008444 1.28018577 -6.27986744 -0.75358409 0 0 Z " fill="#BC00FF" transform="translate(310,255)"/>
<path d="M0 0 C4.90605959 3.1568012 7.42622048 7.33263489 10.3125 12.25 C10.9940918 13.33861328 10.9940918 13.33861328 11.68945312 14.44921875 C14.732378 19.58329651 15.58758425 23.0402169 15 29 C14 31.4375 14 31.4375 12 33 C9.27651234 33.90193423 6.84933208 34.41748455 4 34 C-0.91686961 30.98336985 -3.4499785 26.65970307 -6.3125 21.8125 C-6.76689453 21.09513672 -7.22128906 20.37777344 -7.68945312 19.63867188 C-10.72913336 14.53292327 -12.16254984 9.96140313 -11 4 C-7.77123438 0.10648852 -4.96361941 -0.8272699 0 0 Z " fill="#CE00FF" transform="translate(390,394)"/>
<path d="M0 0 C2.875 2.0625 2.875 2.0625 5 5 C5.89798518 11.55776331 3.49772903 15.70709884 0.3125 21.1875 C-0.34008789 22.37762695 -0.34008789 22.37762695 -1.00585938 23.59179688 C-3.46780661 27.935766 -5.67548429 31.28193789 -10 34 C-13.73175586 34.62195931 -15.49160462 34.25419769 -18.875 32.5625 C-21.57508079 29.30652022 -21.46775722 27.57084848 -21.36523438 23.46704102 C-20.72448293 19.13897059 -18.62394466 15.83663178 -16.3125 12.1875 C-15.87744141 11.45080078 -15.44238281 10.71410156 -14.99414062 9.95507812 C-11.37323862 4.01679884 -7.68441627 -1.44082805 0 0 Z " fill="#CD00FF" transform="translate(400,255)"/>
<path d="M0 0 C1.7634375 -0.01643555 1.7634375 -0.01643555 3.5625 -0.03320312 C12.1721473 0.04017455 12.1721473 0.04017455 15.8359375 2.35180664 C18.41851181 4.99002984 18.59164258 6.82212198 18.6640625 10.46484375 C17.50746097 14.11834387 16.1728654 15.3475522 13 17.5625 C8.65669075 18.31167678 4.39716982 18.25982187 0 18.1875 C-1.7634375 18.21650391 -1.7634375 18.21650391 -3.5625 18.24609375 C-13.1324214 18.1917192 -13.1324214 18.1917192 -16.2734375 15.2421875 C-18.57379159 11.67195469 -18.74469289 9.73278018 -18 5.5625 C-13.65015031 -1.19846547 -7.41599781 -0.15043417 0 0 Z " fill="#D600FF" transform="translate(432,332.4375)"/>
<path d="M0 0 C1.18464844 -0.03287109 2.36929687 -0.06574219 3.58984375 -0.09960938 C13.31708019 -0.15992482 13.31708019 -0.15992482 16.41796875 2.7734375 C18.49191584 6.01012381 18.68775486 7.65900309 18.125 11.4375 C17.27106458 13.99930627 16.68800818 15.0818403 14.40209961 16.52587891 C9.77406903 18.37867897 4.6063795 17.80691988 -0.3125 17.8125 C-2.01116211 17.84923828 -2.01116211 17.84923828 -3.74414062 17.88671875 C-12.0367953 17.91603868 -12.0367953 17.91603868 -16.09765625 15.59765625 C-18.40710777 12.7907844 -18.875 11.06689693 -18.875 7.4375 C-14.96251847 -1.16995938 -8.31118957 0.04043281 0 0 Z " fill="#B300FF" transform="translate(271.875,332.5625)"/>
<path d="M0 0 C2.78712003 1.92954463 3.73691052 3.26710787 4.875 6.4375 C5.02766038 9.56703769 4.51359874 11.26110704 3 14 C0.68814262 16.39442371 -0.628896 16.94472919 -3.9375 17.4375 C-7.77868756 16.88875892 -9.34677313 15.80483983 -12 13 C-13.16480195 9.97151494 -13.14092583 8.49324042 -12.25 5.375 C-9.35983281 -0.11631766 -6.21070634 -1.12694268 0 0 Z " fill="#D200FF" transform="translate(416,437)"/>
<path d="M0 0 C2.78712003 1.92954463 3.73691052 3.26710787 4.875 6.4375 C5.02766038 9.56703769 4.51359874 11.26110704 3 14 C0.68814262 16.39442371 -0.628896 16.94472919 -3.9375 17.4375 C-7.91302153 16.86956835 -9.42506202 16.10507227 -12 13 C-12.90705593 8.70134365 -12.72920717 5.24572891 -10.5 1.4375 C-6.9675333 -0.59366835 -3.97963085 -0.80900093 0 0 Z " fill="#B800FF" transform="translate(296,437)"/>
<path d="M0 0 C3.41639845 1.9739191 4.72268412 3.18538459 6 6.9375 C6 10.60292141 5.23178648 12.13056023 3 15 C-0.51253146 17.34168764 -1.86469356 17.49623677 -6 17 C-8.875 15.5625 -8.875 15.5625 -11 13 C-11.71534153 9.85595859 -11.71534153 7.14404141 -11 4 C-7.77123438 0.10648852 -4.96361941 -0.8272699 0 0 Z " fill="#AA00FF" transform="translate(235,333)"/>
<path d="M0 0 C2.875 1.4375 2.875 1.4375 5 4 C5.71534153 7.14404141 5.71534153 9.85595859 5 13 C2.45528778 16.06862356 0.91058019 16.84823663 -3 17.5 C-6.8004888 16.8665852 -8.39482991 15.82847039 -11 13 C-12.23674251 9.36706886 -12.34458203 7.75808047 -10.75 4.25 C-7.56057674 0.14931295 -5.03203934 -0.60384472 0 0 Z " fill="#DF00FF" transform="translate(475,333)"/>
<path d="M0 0 C3.08364499 1.85018699 4.63905184 3.06153478 5.9375 6.4375 C6.01322099 9.54206051 5.50149761 11.28300432 4 14 C1.68814262 16.39442371 0.371104 16.94472919 -2.9375 17.4375 C-6.91302153 16.86956835 -8.42506202 16.10507227 -11 13 C-11.71534153 9.85595859 -11.71534153 7.14404141 -11 4 C-7.77123438 0.10648852 -4.96361941 -0.8272699 0 0 Z " fill="#B700FF" transform="translate(295,229)"/>
<path d="M0 0 C2.875 1.4375 2.875 1.4375 5 4 C5.71534153 7.14404141 5.71534153 9.85595859 5 13 C2.45528778 16.06862356 0.91058019 16.84823663 -3 17.5 C-6.91058019 16.84823663 -8.45528778 16.06862356 -11 13 C-11.71534153 9.85595859 -11.71534153 7.14404141 -11 4 C-7.77123438 0.10648852 -4.96361941 -0.8272699 0 0 Z " fill="#D200FF" transform="translate(415,229)"/>
</svg>
