<?xml version="1.0" encoding="UTF-8"?>
<svg version="1.1" xmlns="http://www.w3.org/2000/svg" width="512" height="512">
<path d="M0 0 C8.38832925 4.91993082 13.56123431 11.88006325 16.14453125 21.2578125 C16.37389107 24.2224224 16.33499639 27.16170228 16.26953125 30.1328125 C16.26050781 30.9165625 16.25148437 31.7003125 16.2421875 32.5078125 C16.21881188 34.42461305 16.18294778 36.34125441 16.14453125 38.2578125 C16.99337922 38.16024438 17.84222719 38.06267626 18.71679783 37.96215153 C62.57956192 33.16637732 100.47742034 33.00196826 136.13919067 61.60269165 C143.32917602 67.50649739 150.03640486 73.88583972 156.69529343 80.37527466 C158.59624264 82.20902149 160.52248256 84.01165754 162.45901489 85.80773926 C203.49209753 123.98719591 217.60600684 162.72636324 219.87135959 218.39114833 C220.57480148 238.36127462 220.30133625 258.29412238 219.64453125 278.2578125 C219.61209172 279.2546734 219.61209172 279.2546734 219.57899684 280.2716729 C218.62397825 309.314634 216.92727648 338.30567591 214.34179688 367.25 C214.25469511 368.24166322 214.16759334 369.23332643 214.07785213 370.25504005 C211.05190397 404.07322125 211.05190397 404.07322125 198.39453125 416.1328125 C191.56078761 421.64218722 183.88100098 424.76329535 175.14453125 425.2578125 C175.08265625 426.5365625 175.02078125 427.8153125 174.95703125 429.1328125 C173.91290955 438.24384706 168.8795306 446.17669659 162.14453125 452.2578125 C153.04449144 458.9130655 144.14065397 461.71957892 132.94900513 461.64549255 C131.96085686 461.65087809 130.97270859 461.65626363 129.95461643 461.66181237 C126.6637885 461.67604963 123.37336523 461.66899855 120.08251953 461.66186523 C117.7148303 461.66757102 115.34714383 461.67453608 112.97946167 461.68266296 C106.56206557 461.70058681 100.14480627 461.69942732 93.72739267 461.69372058 C89.71522593 461.69065413 85.70307865 461.69362207 81.69091415 461.69819832 C81.0236721 461.69894674 80.35643004 461.69969516 79.66896852 461.70046626 C78.31321136 461.70199783 76.95745421 461.70353618 75.60169707 461.70508123 C62.90354983 461.71879154 50.2054643 461.71337907 37.50731848 461.70189602 C25.90784549 461.69196645 14.30853207 461.70490209 2.70908369 461.72883021 C-9.22081184 461.75325329 -21.15063315 461.76282114 -33.08055317 461.75617748 C-39.77045869 461.75269221 -46.46022354 461.75520886 -53.15011215 461.77242851 C-59.44243858 461.78791832 -65.73446085 461.78391906 -72.02677536 461.76512337 C-74.33134402 461.76144312 -76.63593532 461.76452941 -78.94048309 461.77500916 C-94.94345006 461.8422053 -108.24672601 461.09325281 -120.5703125 449.66796875 C-130.5139934 438.91462427 -132.16092243 426.39708802 -132.11616516 412.33561707 C-132.11999071 411.05415859 -132.12381626 409.77270012 -132.12775773 408.45240957 C-132.13799997 404.91578574 -132.13586559 401.37926372 -132.13157713 397.8426317 C-132.129103 394.02042776 -132.13813262 390.19824789 -132.14561462 386.37605286 C-132.15834489 378.89552799 -132.16015738 371.41503906 -132.15781436 363.93450519 C-132.15602906 357.85167588 -132.15778539 351.76885744 -132.1620388 345.68602943 C-132.16263399 344.81925009 -132.16322918 343.95247074 -132.16384241 343.05942536 C-132.1650542 341.29836994 -132.16626833 339.53731452 -132.16748478 337.7762591 C-132.17835402 321.27153621 -132.17620083 304.76683377 -132.17009994 288.26210973 C-132.16493215 273.17789015 -132.17618368 258.09373517 -132.19519816 243.00952836 C-132.21459148 227.50540924 -132.22282988 212.00132067 -132.2190749 196.49718934 C-132.21716502 187.79910647 -132.21962957 179.10107856 -132.23378944 170.4030056 C-132.24572332 162.99760649 -132.24708573 155.59229619 -132.23499928 148.18689581 C-132.22912445 144.41221723 -132.22797221 140.63770092 -132.24000168 136.86303329 C-132.25291812 132.76221421 -132.24236284 128.6617787 -132.22969055 124.56095886 C-132.23706484 123.38029427 -132.24443912 122.19962968 -132.25203687 120.98318738 C-132.16805458 108.02286894 -129.30001006 95.65151259 -120.484375 85.73046875 C-113.52663866 79.44014118 -104.431072 74.2578125 -94.85546875 74.2578125 C-94.76265625 72.3396875 -94.76265625 72.3396875 -94.66796875 70.3828125 C-93.70791982 61.90238028 -89.19151335 53.93886514 -82.85546875 48.2578125 C-70.81347018 39.12184828 -60.45623607 37.76870491 -45.85546875 38.2578125 C-45.901875 37.14664063 -45.94828125 36.03546875 -45.99609375 34.890625 C-46.31658097 24.05864437 -45.66999374 15.88835484 -38.85546875 7.0078125 C-28.61037327 -3.6713972 -13.40956113 -6.36009035 0 0 Z M-33.62890625 16.4140625 C-36.79779593 21.17748902 -37.11988302 25.46693122 -36.98046875 31.0703125 C-36.97144531 31.76318359 -36.96242188 32.45605469 -36.953125 33.16992188 C-36.92973032 34.86603645 -36.89386516 36.56197121 -36.85546875 38.2578125 C-33.55546875 38.2578125 -30.25546875 38.2578125 -26.85546875 38.2578125 C-26.85546875 37.2678125 -26.85546875 36.2778125 -26.85546875 35.2578125 C-23.48046875 35.0703125 -23.48046875 35.0703125 -19.85546875 35.2578125 C-19.19546875 36.2478125 -18.53546875 37.2378125 -17.85546875 38.2578125 C-15.23856118 38.67490608 -15.23856118 38.67490608 -12.19140625 38.55078125 C-10.50917969 38.5362793 -10.50917969 38.5362793 -8.79296875 38.52148438 C-7.61734375 38.49634766 -6.44171875 38.47121094 -5.23046875 38.4453125 C-4.04710937 38.43177734 -2.86375 38.41824219 -1.64453125 38.40429688 C1.28560664 38.36885166 4.21484584 38.31944019 7.14453125 38.2578125 C7.71250913 28.79151443 7.9546536 21.23874979 2.14453125 13.2578125 C-0.15614894 10.76570729 -0.15614894 10.76570729 -2.85546875 9.2578125 C-4.12390625 8.3915625 -4.12390625 8.3915625 -5.41796875 7.5078125 C-17.32736553 3.17712276 -25.91725236 7.28070706 -33.62890625 16.4140625 Z " fill="#CDD3E1" transform="translate(215.85546875,26.7421875)"/>
<path d="M0 0 C0.00059709 0.6708174 0.00119418 1.34163479 0.00180936 2.03277999 C0.03771727 41.80671124 0.09437771 81.58056463 0.17792095 121.3544256 C0.18793819 126.13203538 0.19778236 130.9096455 0.20751953 135.68725586 C0.2094609 136.63837656 0.21140228 137.58949725 0.21340248 138.56943979 C0.2444084 153.96203785 0.2613992 169.354621 0.27319422 184.7472444 C0.28561307 200.54604336 0.31313106 216.34476421 0.35461307 232.14351386 C0.37972743 241.88916299 0.39311878 251.63468255 0.39142957 261.3803645 C0.39139978 268.06685348 0.40606018 274.75321065 0.43216428 281.43964825 C0.44678596 285.29517574 0.45503415 289.15043293 0.44580269 293.00598335 C0.43594722 297.19315381 0.45707954 301.37961315 0.48101807 305.56672668 C0.47325765 306.77589794 0.46549723 307.98506919 0.45750165 309.23088199 C0.57545683 320.90631576 3.69146534 330.58376212 12 339 C21.53806913 347.35312496 30.63317481 350.46694327 43.19998169 350.39872742 C44.17632785 350.40537424 45.15267401 350.41202107 46.15860641 350.41886932 C49.40288387 350.43739773 52.64678923 350.43490086 55.89111328 350.43237305 C58.22753923 350.44139639 60.56396045 350.45172501 62.90037537 350.46325684 C69.22397427 350.4907855 75.54748323 350.5001058 81.87113428 350.50611091 C87.81601567 350.51455265 93.76083311 350.53668536 99.70567726 350.55872939 C111.47434019 350.60192548 123.24299786 350.63193313 135.01171875 350.65356445 C146.43850286 350.67459572 157.86524396 350.70188949 169.29199219 350.73754883 C169.9972829 350.73974765 170.70257362 350.74194648 171.42923678 350.74421193 C174.96775565 350.75528212 178.50627412 350.76647483 182.04479241 350.77772844 C211.36315405 350.87081181 240.68154755 350.94223572 270 351 C269.85697094 352.44237241 269.70905759 353.88426105 269.55908203 355.32592773 C269.43631393 356.53042824 269.43631393 356.53042824 269.31106567 357.75926208 C268.22584956 365.57653383 262.72653172 372.82944224 257 378 C247.89996019 384.655253 238.99612272 387.46176642 227.80447388 387.38768005 C226.81632561 387.39306559 225.82817734 387.39845113 224.81008518 387.40399987 C221.51925725 387.41823713 218.22883398 387.41118605 214.93798828 387.40405273 C212.57029905 387.40975852 210.20261258 387.41672358 207.83493042 387.42485046 C201.41753432 387.44277431 195.00027502 387.44161482 188.58286142 387.43590808 C184.57069468 387.43284163 180.5585474 387.43580957 176.5463829 387.44038582 C175.87914085 387.44113424 175.21189879 387.44188266 174.52443727 387.44265376 C173.16868011 387.44418533 171.81292296 387.44572368 170.45716582 387.44726873 C157.75901858 387.46097904 145.06093305 387.45556657 132.36278723 387.44408352 C120.76331424 387.43415395 109.16400082 387.44708959 97.56455244 387.47101771 C85.63465691 387.49544079 73.7048356 387.50500864 61.77491558 387.49836498 C55.08501006 387.49487971 48.39524521 387.49739636 41.7053566 387.51461601 C35.41303017 387.53010582 29.1210079 387.52610656 22.82869339 387.50731087 C20.52412473 387.50363062 18.21953343 387.50671691 15.91498566 387.51719666 C-0.08798131 387.5843928 -13.39125726 386.83544031 -25.71484375 375.41015625 C-35.65852465 364.65681177 -37.30545368 352.13927552 -37.26069641 338.07780457 C-37.26452196 336.79634609 -37.26834751 335.51488762 -37.27228898 334.19459707 C-37.28253122 330.65797324 -37.28039684 327.12145122 -37.27610838 323.5848192 C-37.27363425 319.76261526 -37.28266387 315.94043539 -37.29014587 312.11824036 C-37.30287614 304.63771549 -37.30468863 297.15722656 -37.30234561 289.67669269 C-37.30056031 283.59386338 -37.30231664 277.51104494 -37.30657005 271.42821693 C-37.30716524 270.56143759 -37.30776043 269.69465824 -37.30837366 268.80161286 C-37.30958545 267.04055744 -37.31079958 265.27950202 -37.31201603 263.5184466 C-37.32288527 247.01372371 -37.32073208 230.50902127 -37.31463119 214.00429723 C-37.3094634 198.92007765 -37.32071493 183.83592267 -37.33972941 168.75171586 C-37.35912273 153.24759674 -37.36736113 137.74350817 -37.36360615 122.23937684 C-37.36169627 113.54129397 -37.36416082 104.84326606 -37.37832069 96.1451931 C-37.39025457 88.73979399 -37.39161698 81.33448369 -37.37953053 73.92908331 C-37.3736557 70.15440473 -37.37250346 66.37988842 -37.38453293 62.60522079 C-37.39744937 58.50440171 -37.38689409 54.4039662 -37.3742218 50.30314636 C-37.38159609 49.12248177 -37.38897037 47.94181718 -37.39656812 46.72537488 C-37.31258583 33.76505644 -34.44454131 21.39370009 -25.62890625 11.47265625 C-18.67116991 5.18232868 -9.57560325 0 0 0 Z " fill="#5099FD" transform="translate(121,101)"/>
<path d="M0 0 C0.78716105 -0.00453111 1.5743221 -0.00906223 2.38533652 -0.01373065 C5.03157782 -0.02642386 7.67761462 -0.02475112 10.32388306 -0.02310181 C12.21766933 -0.02908399 14.11145316 -0.03588882 16.00523376 -0.04345703 C21.156067 -0.06115585 26.30683383 -0.06581404 31.45769453 -0.0670886 C35.75451348 -0.06898554 40.05131689 -0.07634072 44.34812987 -0.08343279 C54.48409855 -0.09972912 64.62003169 -0.10460061 74.75601196 -0.10317993 C85.21873897 -0.10197818 95.68125979 -0.12308388 106.14393461 -0.15466726 C115.12065427 -0.18080139 124.09730647 -0.19154843 133.0740639 -0.19026911 C138.43814562 -0.18975863 143.8020442 -0.19548917 149.1660881 -0.21662521 C154.21074711 -0.23595936 159.25504735 -0.23616514 164.29971886 -0.22159195 C166.15206741 -0.21949674 168.00443814 -0.22424693 169.85674858 -0.23631287 C172.38417141 -0.25171111 174.91034882 -0.24249385 177.43774414 -0.22705078 C178.1720866 -0.23733791 178.90642905 -0.24762503 179.66302431 -0.25822389 C184.49289462 -0.19293415 186.95614576 0.83534558 190.34585571 4.26742554 C192.39118168 8.35807748 191.61903121 13.5838238 191.65835571 18.07992554 C191.68735962 19.17369507 191.71636353 20.2674646 191.74624634 21.39437866 C191.81032514 29.4830947 191.81032514 29.4830947 189.45132446 33.46664429 C185.7275054 36.65158044 182.67930658 36.41348869 177.97727966 36.40786743 C176.82443774 36.41232412 176.82443774 36.41232412 175.64830607 36.41687083 C173.05895303 36.42558001 170.4696461 36.42706796 167.88027954 36.42855835 C166.02929586 36.43318504 164.17831314 36.4382095 162.32733154 36.44360352 C157.28788485 36.45674592 152.24845149 36.46317633 147.20899034 36.46761417 C144.06141559 36.4705426 140.9138445 36.47464702 137.76627159 36.47911835 C127.92101871 36.49279959 118.07577417 36.50246255 108.23051244 36.50632024 C96.86101815 36.51079937 85.49164418 36.52833796 74.12218648 36.55732083 C65.33824282 36.57893607 56.55433301 36.58902448 47.77036303 36.59036136 C42.52248336 36.59140971 37.2747167 36.59732383 32.02686501 36.61518097 C27.08814842 36.63165834 22.14962981 36.63381873 17.21089554 36.62504196 C15.39970177 36.62427135 13.58849737 36.62861752 11.7773304 36.63850021 C9.30110163 36.65121751 6.82557419 36.64534426 4.34934998 36.63491821 C3.63571488 36.64297462 2.92207978 36.65103102 2.18681937 36.65933156 C-3.48710658 36.60361378 -8.41708497 35.45851006 -12.56674194 31.39413452 C-13.87124951 28.84281764 -14.04144472 27.09992037 -14.05258179 24.24008179 C-14.05644897 23.28295288 -14.06031616 22.32582397 -14.06430054 21.33969116 C-14.05269897 20.34646851 -14.04109741 19.35324585 -14.02914429 18.32992554 C-14.04074585 17.34057007 -14.05234741 16.3512146 -14.06430054 15.33187866 C-14.02740145 6.18705534 -14.02740145 6.18705534 -10.65414429 2.26742554 C-6.98493068 -0.17871687 -4.24268772 -0.01778614 0 0 Z " fill="#FEFEFE" transform="translate(184.65414428710938,367.7325744628906)"/>
<path d="M0 0 C0.78716105 -0.00453111 1.5743221 -0.00906223 2.38533652 -0.01373065 C5.03157782 -0.02642386 7.67761462 -0.02475112 10.32388306 -0.02310181 C12.21766933 -0.02908399 14.11145316 -0.03588882 16.00523376 -0.04345703 C21.156067 -0.06115585 26.30683383 -0.06581404 31.45769453 -0.0670886 C35.75451348 -0.06898554 40.05131689 -0.07634072 44.34812987 -0.08343279 C54.48409855 -0.09972912 64.62003169 -0.10460061 74.75601196 -0.10317993 C85.21873897 -0.10197818 95.68125979 -0.12308388 106.14393461 -0.15466726 C115.12065427 -0.18080139 124.09730647 -0.19154843 133.0740639 -0.19026911 C138.43814562 -0.18975863 143.8020442 -0.19548917 149.1660881 -0.21662521 C154.21074711 -0.23595936 159.25504735 -0.23616514 164.29971886 -0.22159195 C166.15206741 -0.21949674 168.00443814 -0.22424693 169.85674858 -0.23631287 C172.38417141 -0.25171111 174.91034882 -0.24249385 177.43774414 -0.22705078 C178.1720866 -0.23733791 178.90642905 -0.24762503 179.66302431 -0.25822389 C184.49289462 -0.19293415 186.95614576 0.83534558 190.34585571 4.26742554 C192.39118168 8.35807748 191.61903121 13.5838238 191.65835571 18.07992554 C191.68735962 19.17369507 191.71636353 20.2674646 191.74624634 21.39437866 C191.81032514 29.4830947 191.81032514 29.4830947 189.45132446 33.46664429 C186.14639853 36.29330635 184.29178467 36.39277594 180.01296997 36.39440918 C178.31239693 36.39863892 178.31239693 36.39863892 176.57746887 36.4029541 C175.32605606 36.40092987 174.07464325 36.39890564 172.78530884 36.39682007 C170.81320183 36.39944855 170.81320183 36.39944855 168.80125427 36.40213013 C165.17208891 36.40671253 161.54295183 36.40490604 157.91378593 36.40175104 C154.06810305 36.39920651 150.22242249 36.40157309 146.3767395 36.40313721 C139.86627781 36.40496329 133.3558274 36.40255206 126.84536743 36.39779663 C120.26495617 36.39304363 113.68456765 36.39290437 107.10415649 36.39779663 C86.21645877 36.41270806 65.32936401 36.38832801 44.44191742 36.27833748 C42.38062262 36.26760653 40.31932509 36.25765046 38.25802612 36.24775696 C30.92380151 36.20986412 23.59047843 36.14994281 16.25682068 36.05035019 C14.11267709 36.02351334 11.96844197 36.00310267 9.82417297 35.98959732 C6.93297481 35.96950902 4.04326574 35.92469105 1.15249634 35.87240601 C0.32141861 35.87156887 -0.50965912 35.87073174 -1.36592102 35.86986923 C-6.36342087 35.74341107 -9.02997161 35.0268753 -12.65414429 31.26742554 C-14.57913089 27.41745233 -13.88252381 22.68983674 -13.90414429 18.45492554 C-13.92476929 17.45654663 -13.94539429 16.45816772 -13.96664429 15.42953491 C-14.01615535 6.14002239 -14.01615535 6.14002239 -10.65414429 2.26742554 C-6.98493068 -0.17871687 -4.24268772 -0.01778614 0 0 Z " fill="#FEFEFE" transform="translate(184.65414428710938,304.7325744628906)"/>
<path d="M0 0 C0.78716105 -0.00453111 1.5743221 -0.00906223 2.38533652 -0.01373065 C5.03157782 -0.02642386 7.67761462 -0.02475112 10.32388306 -0.02310181 C12.21766933 -0.02908399 14.11145316 -0.03588882 16.00523376 -0.04345703 C21.156067 -0.06115585 26.30683383 -0.06581404 31.45769453 -0.0670886 C35.75451348 -0.06898554 40.05131689 -0.07634072 44.34812987 -0.08343279 C54.48409855 -0.09972912 64.62003169 -0.10460061 74.75601196 -0.10317993 C85.21873897 -0.10197818 95.68125979 -0.12308388 106.14393461 -0.15466726 C115.12065427 -0.18080139 124.09730647 -0.19154843 133.0740639 -0.19026911 C138.43814562 -0.18975863 143.8020442 -0.19548917 149.1660881 -0.21662521 C154.21074711 -0.23595936 159.25504735 -0.23616514 164.29971886 -0.22159195 C166.15206741 -0.21949674 168.00443814 -0.22424693 169.85674858 -0.23631287 C172.38417141 -0.25171111 174.91034882 -0.24249385 177.43774414 -0.22705078 C178.1720866 -0.23733791 178.90642905 -0.24762503 179.66302431 -0.25822389 C184.49289462 -0.19293415 186.95614576 0.83534558 190.34585571 4.26742554 C192.39118168 8.35807748 191.61903121 13.5838238 191.65835571 18.07992554 C191.68735962 19.17369507 191.71636353 20.2674646 191.74624634 21.39437866 C191.81011606 29.45670225 191.81011606 29.45670225 189.51382446 33.46664429 C186.26867863 36.16216182 183.66999999 36.39194322 179.59938049 36.38491821 C178.61967474 36.38563576 177.63996899 36.3863533 176.63057518 36.38709259 C175.55427156 36.38272942 174.47796795 36.37836624 173.36904907 36.37387085 C172.23150492 36.37317345 171.09396076 36.37247604 169.92194557 36.37175751 C166.11400492 36.36803136 162.30612445 36.3569167 158.49819946 36.34555054 C155.80019754 36.34027853 153.10219394 36.3363117 150.40419006 36.33218384 C143.93044697 36.32128918 137.45673153 36.30445017 130.98300713 36.28564286 C125.89214785 36.27107885 120.8012903 36.25980682 115.7104187 36.25057983 C99.82389318 36.22114468 83.93767567 36.17093926 68.05135536 36.08350372 C60.642109 36.04312636 53.23298531 36.01090451 45.82363892 35.99642944 C39.17844936 35.98343623 32.53348862 35.95664832 25.88842815 35.91281247 C22.42103604 35.89037455 18.95392336 35.87450523 15.4864521 35.87554169 C11.68344443 35.87319148 7.88136932 35.84630923 4.07852173 35.81332397 C2.95646332 35.81835434 1.83440491 35.8233847 0.67834473 35.8285675 C-6.89185734 35.7263949 -6.89185734 35.7263949 -10.82493591 33.35830688 C-14.73528715 28.88856983 -13.87508957 24.14601834 -13.90414429 18.45492554 C-13.92476929 17.45654663 -13.94539429 16.45816772 -13.96664429 15.42953491 C-14.01615535 6.14002239 -14.01615535 6.14002239 -10.65414429 2.26742554 C-6.98493068 -0.17871687 -4.24268772 -0.01778614 0 0 Z " fill="#FEFEFE" transform="translate(184.65414428710938,241.73257446289063)"/>
<path d="M0 0 C4.08003478 0.53396831 5.9605373 2.58805376 8.80889893 5.44140625 C9.27784159 5.90708008 9.74678426 6.37275391 10.22993731 6.85253906 C11.8001574 8.41547351 13.35941817 9.98890112 14.91894531 11.5625 C16.04203703 12.68480094 17.16578178 13.80644871 18.29013062 14.92749023 C21.342107 17.97432916 24.38465814 21.03042484 27.42549229 24.08837891 C30.6048266 27.28273297 33.79224873 30.46899689 36.97869873 33.65625 C42.32677118 39.00801564 47.669172 44.36538877 53.0078125 49.7265625 C59.87003609 56.61769003 66.74152496 63.49950069 73.61598587 70.37841797 C79.51617114 76.28257666 85.41208701 82.19099344 91.30731869 88.10009766 C93.20776711 90.00465214 95.10880738 91.90861437 97.00992584 93.8125 C99.99022836 96.79768129 102.96786487 99.785497 105.94340897 102.77542114 C107.03908231 103.87563215 108.13561289 104.97499017 109.23303604 106.07345581 C110.72404086 107.56619565 112.21194594 109.0619551 113.69903564 110.55859375 C114.53451557 111.39704834 115.3699955 112.23550293 116.230793 113.09936523 C118 115 118 115 118 116 C107.23775667 116.04649874 96.47553754 116.08195792 85.71321392 116.10362434 C80.7149416 116.11402717 75.71673841 116.12812193 70.71850586 116.15087891 C65.88797648 116.17273276 61.05751328 116.18459491 56.22693825 116.18975449 C54.39111096 116.19342784 52.55528698 116.20060052 50.71948814 116.21146011 C24.05490422 116.36280963 24.05490422 116.36280963 15 108 C14.38253906 107.44957031 13.76507813 106.89914063 13.12890625 106.33203125 C5.61959272 99.27489144 0.10080613 90.24617718 -0.36076355 79.72874451 C-0.36929141 78.24161689 -0.36187271 76.75433355 -0.34057617 75.26733398 C-0.34101425 74.44671982 -0.34145233 73.62610565 -0.34190369 72.78062439 C-0.33983467 70.10219467 -0.31659423 67.42441239 -0.29296875 64.74609375 C-0.28736606 62.8756596 -0.28309914 61.00522102 -0.28010559 59.13478088 C-0.26870981 54.23733131 -0.23928851 49.34015318 -0.20599365 44.44281006 C-0.17517864 39.435218 -0.16157592 34.42758163 -0.14648438 29.41992188 C-0.11441332 19.61316269 -0.06328137 9.80660401 0 0 Z " fill="#B7BFD7" transform="translate(310,67)"/>
<path d="M0 0 C8.36289269 4.90501174 13.61013871 11.88690987 16.14453125 21.2578125 C16.45200153 24.79720013 16.45878768 28.32671913 16.46679688 31.87792969 C16.47672668 32.93563568 16.48665649 33.99334167 16.49688721 35.08309937 C16.52603762 38.57365547 16.53971867 42.0640298 16.55078125 45.5546875 C16.56229177 47.988383 16.57380714 50.42207847 16.58532715 52.85577393 C16.60632067 57.95659222 16.61802331 63.05734772 16.625 68.15820312 C16.63596444 74.67940637 16.68401852 81.19977338 16.74094391 87.72071457 C16.7782772 92.74805085 16.7886121 97.77518728 16.79167175 102.80265045 C16.79770772 105.2059308 16.81370711 107.60920835 16.84004211 110.01235199 C16.87433564 113.3822459 16.87036343 116.75011733 16.85742188 120.12011719 C16.87585144 121.1033194 16.89428101 122.08652161 16.91326904 123.09951782 C16.82629064 130.36677603 14.73528619 135.58825172 10.14453125 141.2578125 C4.44191103 145.83768609 -0.84970799 147.70706668 -8.16015625 147.58984375 C-13.81302214 146.89347621 -18.05046269 144.3889331 -21.71484375 140.0625 C-25.10761003 135.16722294 -26.98374659 131.20963512 -26.97572327 125.20819092 C-26.97709793 124.41176178 -26.9784726 123.61533264 -26.97988892 122.79476929 C-26.97629364 121.93018097 -26.97269836 121.06559265 -26.96899414 120.17480469 C-26.96914017 119.25738495 -26.96928619 118.33996521 -26.96943665 117.39474487 C-26.96874041 114.36470163 -26.9609615 111.33471999 -26.953125 108.3046875 C-26.95125979 106.20290155 -26.94983637 104.10111516 -26.94883728 101.99932861 C-26.94502019 96.46898192 -26.93519676 90.93866151 -26.9241333 85.4083252 C-26.91390184 79.76440791 -26.90933594 74.12048638 -26.90429688 68.4765625 C-26.8935738 57.40363429 -26.87650704 46.33072558 -26.85546875 35.2578125 C-23.39046875 34.7628125 -23.39046875 34.7628125 -19.85546875 34.2578125 C-19.19546875 35.2478125 -18.53546875 36.2378125 -17.85546875 37.2578125 C-15.24350584 37.76793815 -15.24350584 37.76793815 -12.19140625 37.76953125 C-10.50917969 37.82270508 -10.50917969 37.82270508 -8.79296875 37.87695312 C-7.61734375 37.89951172 -6.44171875 37.92207031 -5.23046875 37.9453125 C-4.04710937 37.97947266 -2.86375 38.01363281 -1.64453125 38.04882812 C1.28506185 38.13151825 4.21434765 38.20059964 7.14453125 38.2578125 C7.00483064 24.94310523 7.00483064 24.94310523 1.14453125 13.2578125 C-1.36449062 11.18618717 -3.92206195 9.65004752 -6.85546875 8.2578125 C-7.51546875 7.9278125 -8.17546875 7.5978125 -8.85546875 7.2578125 C-15.78147921 6.51193445 -21.44123169 6.54806215 -27.171875 10.765625 C-32.39440797 15.39441292 -35.51675012 19.91951344 -36.234375 26.9921875 C-36.30404176 28.33031512 -36.36508365 29.66891663 -36.41796875 31.0078125 C-36.73342442 38.13576817 -36.73342442 38.13576817 -37.85546875 39.2578125 C-40.52605726 39.39896411 -43.17979113 39.30028357 -45.85546875 39.2578125 C-46.33603915 27.00326739 -46.62823457 17.156118 -38.85546875 7.0078125 C-28.61037327 -3.6713972 -13.40956113 -6.36009035 0 0 Z " fill="#27344E" transform="translate(215.85546875,26.7421875)"/>
<path d="M0 0 C8.91 0 17.82 0 27 0 C27.06780352 11.63091133 27.12283225 23.26169118 27.15543652 34.89275551 C27.17108569 40.29365004 27.19231052 45.69440223 27.22631836 51.09521484 C27.25893817 56.30827609 27.27685864 61.52120049 27.28463173 66.73435593 C27.2901705 68.72225473 27.30098638 70.71014613 27.31719017 72.6979866 C27.33899914 75.48453142 27.34196546 78.27051233 27.34057617 81.05712891 C27.351362 81.87712372 27.36214783 82.69711853 27.3732605 83.54196167 C27.34067619 89.5904695 26.07540263 93.74147361 21.875 98.3125 C17.97157112 100.60364304 14.51986244 101.34277616 10 101 C4.86037461 98.4301873 1.81268818 95.43806454 0 90 C-0.09154624 87.12429099 -0.12596964 84.27326714 -0.11352539 81.39770508 C-0.11367142 80.51944565 -0.11381744 79.64118622 -0.1139679 78.73631287 C-0.11327072 75.83069395 -0.10548739 72.92513898 -0.09765625 70.01953125 C-0.09579138 68.00599706 -0.0943678 65.99246242 -0.09336853 63.97892761 C-0.08954879 58.67708078 -0.07972312 53.37526131 -0.06866455 48.07342529 C-0.05843877 42.66418833 -0.0538684 37.25494696 -0.04882812 31.84570312 C-0.03810039 21.23045479 -0.02050796 10.61523395 0 0 Z " fill="#D5DAE7" transform="translate(197,65)"/>
<path d="M0 0 C42.57 0.33 85.14 0.66 129 1 C128.67 2.32 128.34 3.64 128 5 C127.01 5 126.02 5 125 5 C125.33 4.34 125.66 3.68 126 3 C84.09 3 42.18 3 -1 3 C-0.67 2.01 -0.34 1.02 0 0 Z " fill="#B0B9D3" transform="translate(287,437)"/>
</svg>
