<?xml version="1.0" encoding="UTF-8"?>
<svg version="1.1" xmlns="http://www.w3.org/2000/svg" width="512" height="512">
<path d="M0 0 C30.97875 -0.103125 61.9575 -0.20625 93.875 -0.3125 C103.65108887 -0.35802002 113.42717773 -0.40354004 123.49951172 -0.45043945 C135.45141602 -0.47302246 135.45141602 -0.47302246 141.04934692 -0.47721863 C144.95321912 -0.48187075 148.85675022 -0.50058307 152.76052856 -0.52787781 C157.74640353 -0.56227451 162.73178534 -0.57243737 167.71776795 -0.56536138 C169.54362382 -0.56684013 171.36949762 -0.57669577 173.19525123 -0.59607565 C183.5820787 -0.70117116 192.78836392 -0.67156451 200.89068413 6.72629833 C209.05937994 15.10298954 208.43169744 25.45886573 208.38768005 36.39073181 C208.39185517 38.07414418 208.39733367 39.75755373 208.40399987 41.44095808 C208.41844971 46.05740612 208.41421118 50.67367556 208.40683305 55.29013336 C208.40210258 60.27250523 208.41461014 65.25483841 208.42485046 70.23719788 C208.4420459 79.99420171 208.44287696 89.75114117 208.43763756 99.50815623 C208.43359617 107.43838748 208.43503905 115.3685997 208.44038582 123.29883003 C208.44113424 124.42749499 208.44188266 125.55615995 208.44265376 126.71902688 C208.44418524 129.01189903 208.44572359 131.30477118 208.44726873 133.59764332 C208.46099636 155.09916176 208.45555413 176.60064381 208.44408352 198.10216141 C208.43414992 217.77324892 208.44709357 237.44424237 208.47101771 257.11531537 C208.49539916 277.31459355 208.50501898 297.51382792 208.49836498 317.71312052 C208.49487077 329.05311319 208.49711826 340.39303351 208.51461601 351.73301506 C208.52932599 361.38600795 208.5299891 371.03887756 208.5125451 380.691868 C208.50402303 385.6165388 208.5019151 390.54098924 208.51719666 395.46564865 C208.53101755 399.97542554 208.52631405 404.48479273 208.50695742 408.99454577 C208.50318914 410.62433365 208.50614323 412.25415414 208.51656907 413.88391303 C208.58284832 425.03951126 207.6501854 434.10067027 199.71070766 442.50885391 C191.47526634 449.68731366 180.8717018 448.540899 170.62866211 448.45410156 C168.73524032 448.45287498 166.8418167 448.4534123 164.94839573 448.45556259 C159.89548601 448.45646257 154.84295816 448.43334434 149.79013824 448.40512085 C145.04208727 448.38227594 140.29412737 448.38126486 135.54602051 448.37841797 C121.67646345 448.35746077 107.80697685 448.30161585 93.9375 448.25 C62.938125 448.1675 31.93875 448.085 0 448 C0 376.72 0 305.44 0 232 C28.38 232 56.76 232 86 232 C79.53016688 239.54813864 79.53016688 239.54813864 75.6875 243.0625 C73.15650958 245.56924722 72.05656926 246.84517887 70.8125 250.25 C70.8509432 253.00509841 70.8509432 253.00509841 72 255.375 C73.99250856 257.27432784 73.99250856 257.27432784 77.18798828 257.48486328 C82.40845036 256.82085421 84.43111546 254.55060002 87.9921875 250.8671875 C88.6235965 250.23773224 89.25500549 249.60827698 89.9055481 248.95974731 C91.23326307 247.62804107 92.55237233 246.28770621 93.86328125 244.93945312 C95.86852168 242.88164815 97.90383957 240.85773358 99.9453125 238.8359375 C101.23368594 237.53574908 102.52020933 236.23372426 103.8046875 234.9296875 C104.7155159 234.02462967 104.7155159 234.02462967 105.64474487 233.10128784 C108.29604936 230.34441166 109.84327256 228.4753945 111.05712891 224.79345703 C110.98989444 221.50586405 110.55930707 220.68202659 108.28125 218.375 C107.30671875 217.35986328 107.30671875 217.35986328 106.3125 216.32421875 C105.549375 215.55722656 104.78625 214.79023438 104 214 C102.65787224 212.57199205 101.31581684 211.14391494 99.9753418 209.71435547 C98.01658937 207.64334319 96.0254529 205.60521312 94.02978516 203.56982422 C93.00274562 202.51590398 91.98294286 201.45488678 90.97021484 200.38720703 C89.4863753 198.8242929 87.98079735 197.28558067 86.46875 195.75 C85.58638672 194.83734375 84.70402344 193.9246875 83.79492188 192.984375 C80.27669652 190.48645958 78.22742663 190.486975 74 191 C71.83333333 192.5 71.83333333 192.5 71 195 C70.99364746 199.37690189 72.2220785 201.55872301 75.16015625 204.61328125 C76.44850129 205.85934214 77.749767 207.09215876 79.0625 208.3125 C80.36763854 209.55675744 81.67112253 210.80275354 82.97265625 212.05078125 C83.84289429 212.86542847 83.84289429 212.86542847 84.73071289 213.6965332 C86 215 86 215 86 216 C57.62 216 29.24 216 0 216 C0 144.72 0 73.44 0 0 Z " fill="#3D74FF" transform="translate(236,32)"/>
<path d="M0 0 C0 147.84 0 295.68 0 448 C-138.81132075 448 -138.81132075 448 -147.4375 439.6875 C-154.26784164 431.59303543 -153.42768447 421.54450091 -153.38768005 411.60926819 C-153.39185517 409.92585582 -153.39733367 408.24244627 -153.40399987 406.55904192 C-153.41844971 401.94259388 -153.41421118 397.32632444 -153.40683305 392.70986664 C-153.40210258 387.72749477 -153.41461014 382.74516159 -153.42485046 377.76280212 C-153.4420459 368.00579829 -153.44287696 358.24885883 -153.43763756 348.49184377 C-153.43359617 340.56161252 -153.43503905 332.6314003 -153.44038582 324.70116997 C-153.44113424 323.57250501 -153.44188266 322.44384005 -153.44265376 321.28097312 C-153.44418524 318.98810097 -153.44572359 316.69522882 -153.44726873 314.40235668 C-153.46099636 292.90083824 -153.45555413 271.39935619 -153.44408352 249.89783859 C-153.43414992 230.22675108 -153.44709357 210.55575763 -153.47101771 190.88468463 C-153.49539916 170.68540645 -153.50501898 150.48617208 -153.49836498 130.28687948 C-153.49487077 118.94688681 -153.49711826 107.60696649 -153.51461601 96.26698494 C-153.52932599 86.61399205 -153.5299891 76.96112244 -153.5125451 67.308132 C-153.50402303 62.3834612 -153.5019151 57.45901076 -153.51719666 52.53435135 C-153.53101755 48.02457446 -153.52631405 43.51520727 -153.50695742 39.00545423 C-153.50318914 37.37566635 -153.50614323 35.74584586 -153.51656907 34.11608697 C-153.57876339 23.64803227 -152.74694848 15.69500246 -146.3125 7.1875 C-111.12723703 -26.6700172 -48.8296447 0 0 0 Z M-116 50 C-116.06021475 53.4924553 -115.82581786 55.73555256 -113.89842224 58.68667603 C-110.98209451 60.70418459 -107.98426414 60.41735417 -104.56274414 60.38818359 C-103.80795273 60.39344055 -103.05316132 60.39869751 -102.27549744 60.40411377 C-99.77850698 60.41732569 -97.28215328 60.40857089 -94.78515625 60.3984375 C-93.05024595 60.40045811 -91.31533647 60.40336944 -89.58042908 60.40713501 C-85.94294149 60.41156014 -82.30567481 60.40512208 -78.66821289 60.39111328 C-74.00626284 60.37403393 -69.34483138 60.3838533 -64.68290043 60.40183067 C-61.0995239 60.41267432 -57.51627018 60.4092193 -53.93288994 60.4014473 C-52.21409481 60.39944623 -50.49528853 60.40190129 -48.77650642 60.40888596 C-46.37292104 60.41650866 -43.97017342 60.40488484 -41.56665039 60.38818359 C-40.85638702 60.39425629 -40.14612366 60.40032898 -39.41433716 60.40658569 C-36.36472627 60.36734708 -34.27538025 60.15361215 -31.58958435 58.65542603 C-29.21301254 56.18041498 -29 54.39278825 -29 51 C-31.10028146 47.62454766 -32.20202884 46.26599039 -36 45 C-38.34415828 44.8847287 -40.69145599 44.83052847 -43.03833008 44.80712891 C-43.75089462 44.79895142 -44.46345917 44.79077393 -45.19761658 44.78234863 C-47.554913 44.75754366 -49.91214942 44.7409916 -52.26953125 44.7265625 C-53.07570074 44.72123882 -53.88187023 44.71591515 -54.7124691 44.71043015 C-58.97928287 44.6837203 -63.2460676 44.6643382 -67.51293945 44.64990234 C-71.04087235 44.63656084 -74.56822714 44.60870213 -78.09594727 44.56787109 C-82.35940976 44.51852739 -86.62234776 44.49377951 -90.8860836 44.48667526 C-92.50838637 44.47996786 -94.13067767 44.46475889 -95.75281715 44.44078445 C-98.02699125 44.40908981 -100.29914849 44.4091012 -102.57348633 44.41650391 C-103.86571609 44.40841705 -105.15794586 44.4003302 -106.48933411 44.39199829 C-111.14889172 45.19897311 -112.77251626 46.58145977 -116 50 Z M-114 92 C-116.34522935 94.88512978 -116.34522935 94.88512978 -115.875 98.5 C-115.31734619 101.93687632 -115.31734619 101.93687632 -113.41149902 103.69448853 C-110.14012572 105.46550952 -107.16802339 105.41967851 -103.54101562 105.38818359 C-102.42323982 105.39606903 -102.42323982 105.39606903 -101.28288269 105.40411377 C-98.82379085 105.41729942 -96.36534824 105.4085811 -93.90625 105.3984375 C-92.19518917 105.40045866 -90.48412917 105.40337044 -88.77307129 105.40713501 C-85.1886372 105.41155641 -81.60442752 105.40513332 -78.02001953 105.39111328 C-73.42647692 105.37402141 -68.83346015 105.38386359 -64.23993683 105.40183067 C-60.70717408 105.41267354 -57.17453592 105.40921988 -53.64176941 105.4014473 C-51.94809405 105.39944668 -50.25440737 105.40189973 -48.56074524 105.40888596 C-46.19318704 105.41650883 -43.82647927 105.40488527 -41.45898438 105.38818359 C-40.409972 105.39729263 -40.409972 105.39729263 -39.33976746 105.40658569 C-36.31412654 105.36706282 -34.25881961 105.14477849 -31.59631348 103.65542603 C-29.21161776 101.18242344 -29 99.39662265 -29 96 C-30.77039449 93.25283613 -32.06291844 91.46854078 -35 90 C-37.34770651 89.89744189 -39.69840417 89.86154364 -42.04833984 89.85473633 C-42.77372452 89.85137772 -43.49910919 89.8480191 -44.24647522 89.84455872 C-46.65131327 89.83503768 -49.05608176 89.83310496 -51.4609375 89.83203125 C-53.13001535 89.82881921 -54.79909292 89.82545517 -56.46817017 89.82194519 C-59.97032321 89.81595085 -63.47245156 89.81410558 -66.97460938 89.81469727 C-71.46271877 89.81479885 -75.95066981 89.80115234 -80.43874168 89.78392506 C-83.88740771 89.77280672 -87.33603545 89.77077802 -90.78471756 89.77130699 C-92.43932261 89.7701264 -94.09392864 89.76570022 -95.74851608 89.75797462 C-98.06341382 89.74817911 -100.37796784 89.75105106 -102.69287109 89.75708008 C-104.01032318 89.75565506 -105.32777527 89.75423004 -106.68515015 89.75276184 C-109.80068293 89.98513393 -111.47414426 90.22508121 -114 92 Z M-116 140 C-116.06379471 143.70009307 -116.00422966 145.94213647 -113.39978027 148.6856842 C-110.13786778 150.47217406 -107.16633255 150.42738883 -103.54101562 150.40405273 C-102.79583176 150.41091599 -102.05064789 150.41777924 -101.28288269 150.42485046 C-98.8238104 150.44312683 -96.36537552 150.43928037 -93.90625 150.43359375 C-92.19518832 150.4381548 -90.48412847 150.44346015 -88.77307129 150.44947815 C-85.18864495 150.4584106 -81.60444139 150.45598424 -78.02001953 150.44604492 C-73.42636903 150.43454833 -68.83348644 150.45477617 -64.23993683 150.48396206 C-60.70716467 150.50230556 -57.17457723 150.50203545 -53.64176941 150.49632454 C-51.94808372 150.49617113 -50.25438566 150.50223149 -48.56074524 150.51461601 C-46.19300084 150.52949184 -43.82668404 150.51887608 -41.45898438 150.50170898 C-40.409972 150.51621094 -40.409972 150.51621094 -39.33976746 150.53100586 C-35.98161691 150.48001125 -34.27314409 150.21238837 -31.58850098 148.12489319 C-29.73118678 145.6404161 -29.15471909 144.09438182 -29 141 C-29.7847009 138.50322441 -30.45016658 137.37076281 -32.62257385 135.90586853 C-35.85670357 134.67357101 -38.93831345 134.69689879 -42.35131836 134.69360352 C-43.08514236 134.68528 -43.81896637 134.67695648 -44.57502747 134.66838074 C-46.99668711 134.64431876 -49.41807731 134.63551414 -51.83984375 134.62890625 C-53.52608826 134.61993821 -55.21233195 134.61081633 -56.89857483 134.60154724 C-60.43167046 134.58506589 -63.96467141 134.57735849 -67.49780273 134.57446289 C-72.02194384 134.56907471 -76.54519392 134.53137383 -81.06908321 134.48571873 C-84.55126692 134.45595941 -88.03323554 134.44873962 -91.51553535 134.44773674 C-93.18330537 134.44353347 -94.85107597 134.43109477 -96.51872063 134.41021919 C-98.85290806 134.38332143 -101.18502316 134.38812302 -103.51928711 134.40063477 C-104.20568268 134.38580048 -104.89207825 134.37096619 -105.59927368 134.35568237 C-110.71107003 134.43359715 -112.94961929 135.97184262 -116 140 Z " fill="#11AAFF" transform="translate(221,32)"/>
</svg>
