<?xml version="1.0" encoding="UTF-8"?>
<svg version="1.1" xmlns="http://www.w3.org/2000/svg" width="512" height="512">
<path d="M0 0 C193.81132075 0 193.81132075 0 202.4375 8.3125 C207.13227355 13.87615702 208.45199244 20.72704356 208.36076355 27.79553223 C208.36332682 28.53740705 208.3658901 29.27928187 208.36853105 30.04363775 C208.37343603 32.50653309 208.35703124 34.96880266 208.34057617 37.43164062 C208.33972919 39.20619696 208.34020644 40.98075434 208.34190369 42.75531006 C208.34276227 47.55642894 208.32515866 52.35732168 208.30418181 57.15838814 C208.2853922 62.18187429 208.28366277 67.20536597 208.28010559 72.22888184 C208.27079184 81.73431088 208.24618711 91.23963607 208.21605712 100.74501944 C208.18249227 111.56965183 208.16602185 122.39428926 208.15097082 133.21896076 C208.11963696 155.47937797 208.06463323 177.73965285 208 200 C186.22 200 164.44 200 142 200 C141.01 194.555 141.01 194.555 140 189 C136.63163368 182.43168568 133.52897635 178.75178593 126.70703125 175.81640625 C119.16280331 173.5411629 112.83551756 174.4294281 105.93457031 178.03808594 C100.12164767 181.9243294 95.36368313 187.0185092 90.50244141 192.01049805 C88.6205791 193.9420376 86.72043983 195.85400796 84.81640625 197.76367188 C83.59785344 198.99630454 82.38036733 200.22999283 81.1640625 201.46484375 C80.60361237 202.03065659 80.04316223 202.59646942 79.46572876 203.1794281 C73.49772177 209.32814063 69 215.4193409 69 224.30078125 C69.5722449 231.39423362 72.17881062 236.46730539 77.03515625 241.69921875 C77.83195801 242.55950684 78.62875977 243.41979492 79.44970703 244.30615234 C80.29130371 245.19512207 81.13290039 246.0840918 82 247 C82.83772949 247.88768066 83.67545898 248.77536133 84.53857422 249.68994141 C87.14739921 252.42208011 89.78773535 255.12009101 92.4375 257.8125 C93.31470703 258.72708984 94.19191406 259.64167969 95.09570312 260.58398438 C101.91942805 267.49822297 108.52254783 272.9266154 118.5 273.625 C125.3521056 273.24701963 131.07390505 271.02302563 135.88671875 266.05078125 C140.38289882 259.98692581 140.56007736 255.91957453 142 248 C163.78 248 185.56 248 208 248 C208.09034279 271.31365296 208.16400681 294.62716389 208.20724869 317.94094753 C208.22786155 328.76627818 208.25595783 339.59149224 208.30175781 350.41674805 C208.34166455 359.85359004 208.36744209 369.29034758 208.37635398 378.72727162 C208.3815622 383.72267524 208.39377697 388.71783728 208.42292023 393.71316338 C208.45014989 398.4187889 208.45842974 403.12407421 208.45243073 407.82977104 C208.45352759 409.55305838 208.46143641 411.27635756 208.4768219 412.99957657 C208.56778617 423.71710757 207.95780947 432.00623911 201.3125 440.8125 C152.92832394 487.37085809 67.1469225 448 0 448 C0 300.16 0 152.32 0 0 Z " fill="#3C75FF" transform="translate(236,32)"/>
<path d="M0 0 C0 147.84 0 295.68 0 448 C-138.81132075 448 -138.81132075 448 -147.4375 439.6875 C-154.26784164 431.59303543 -153.42768447 421.54450091 -153.38768005 411.60926819 C-153.39185517 409.92585582 -153.39733367 408.24244627 -153.40399987 406.55904192 C-153.41844971 401.94259388 -153.41421118 397.32632444 -153.40683305 392.70986664 C-153.40210258 387.72749477 -153.41461014 382.74516159 -153.42485046 377.76280212 C-153.4420459 368.00579829 -153.44287696 358.24885883 -153.43763756 348.49184377 C-153.43359617 340.56161252 -153.43503905 332.6314003 -153.44038582 324.70116997 C-153.44113424 323.57250501 -153.44188266 322.44384005 -153.44265376 321.28097312 C-153.44418524 318.98810097 -153.44572359 316.69522882 -153.44726873 314.40235668 C-153.46099636 292.90083824 -153.45555413 271.39935619 -153.44408352 249.89783859 C-153.43414992 230.22675108 -153.44709357 210.55575763 -153.47101771 190.88468463 C-153.49539916 170.68540645 -153.50501898 150.48617208 -153.49836498 130.28687948 C-153.49487077 118.94688681 -153.49711826 107.60696649 -153.51461601 96.26698494 C-153.52932599 86.61399205 -153.5299891 76.96112244 -153.5125451 67.308132 C-153.50402303 62.3834612 -153.5019151 57.45901076 -153.51719666 52.53435135 C-153.53101755 48.02457446 -153.52631405 43.51520727 -153.50695742 39.00545423 C-153.50318914 37.37566635 -153.50614323 35.74584586 -153.51656907 34.11608697 C-153.57876339 23.64803227 -152.74694848 15.69500246 -146.3125 7.1875 C-111.12723703 -26.6700172 -48.8296447 0 0 0 Z M-116 50 C-116.06021475 53.4924553 -115.82581786 55.73555256 -113.89842224 58.68667603 C-110.98209451 60.70418459 -107.98426414 60.41735417 -104.56274414 60.38818359 C-103.80795273 60.39344055 -103.05316132 60.39869751 -102.27549744 60.40411377 C-99.77850698 60.41732569 -97.28215328 60.40857089 -94.78515625 60.3984375 C-93.05024595 60.40045811 -91.31533647 60.40336944 -89.58042908 60.40713501 C-85.94294149 60.41156014 -82.30567481 60.40512208 -78.66821289 60.39111328 C-74.00626284 60.37403393 -69.34483138 60.3838533 -64.68290043 60.40183067 C-61.0995239 60.41267432 -57.51627018 60.4092193 -53.93288994 60.4014473 C-52.21409481 60.39944623 -50.49528853 60.40190129 -48.77650642 60.40888596 C-46.37292104 60.41650866 -43.97017342 60.40488484 -41.56665039 60.38818359 C-40.85638702 60.39425629 -40.14612366 60.40032898 -39.41433716 60.40658569 C-36.36472627 60.36734708 -34.27538025 60.15361215 -31.58958435 58.65542603 C-29.21301254 56.18041498 -29 54.39278825 -29 51 C-31.10028146 47.62454766 -32.20202884 46.26599039 -36 45 C-38.34415828 44.8847287 -40.69145599 44.83052847 -43.03833008 44.80712891 C-43.75089462 44.79895142 -44.46345917 44.79077393 -45.19761658 44.78234863 C-47.554913 44.75754366 -49.91214942 44.7409916 -52.26953125 44.7265625 C-53.07570074 44.72123882 -53.88187023 44.71591515 -54.7124691 44.71043015 C-58.97928287 44.6837203 -63.2460676 44.6643382 -67.51293945 44.64990234 C-71.04087235 44.63656084 -74.56822714 44.60870213 -78.09594727 44.56787109 C-82.35940976 44.51852739 -86.62234776 44.49377951 -90.8860836 44.48667526 C-92.50838637 44.47996786 -94.13067767 44.46475889 -95.75281715 44.44078445 C-98.02699125 44.40908981 -100.29914849 44.4091012 -102.57348633 44.41650391 C-103.86571609 44.40841705 -105.15794586 44.4003302 -106.48933411 44.39199829 C-111.14889172 45.19897311 -112.77251626 46.58145977 -116 50 Z M-114 92 C-116.34522935 94.88512978 -116.34522935 94.88512978 -115.875 98.5 C-115.31734619 101.93687632 -115.31734619 101.93687632 -113.41149902 103.69448853 C-110.14012572 105.46550952 -107.16802339 105.41967851 -103.54101562 105.38818359 C-102.42323982 105.39606903 -102.42323982 105.39606903 -101.28288269 105.40411377 C-98.82379085 105.41729942 -96.36534824 105.4085811 -93.90625 105.3984375 C-92.19518917 105.40045866 -90.48412917 105.40337044 -88.77307129 105.40713501 C-85.1886372 105.41155641 -81.60442752 105.40513332 -78.02001953 105.39111328 C-73.42647692 105.37402141 -68.83346015 105.38386359 -64.23993683 105.40183067 C-60.70717408 105.41267354 -57.17453592 105.40921988 -53.64176941 105.4014473 C-51.94809405 105.39944668 -50.25440737 105.40189973 -48.56074524 105.40888596 C-46.19318704 105.41650883 -43.82647927 105.40488527 -41.45898438 105.38818359 C-40.409972 105.39729263 -40.409972 105.39729263 -39.33976746 105.40658569 C-36.31412654 105.36706282 -34.25881961 105.14477849 -31.59631348 103.65542603 C-29.21161776 101.18242344 -29 99.39662265 -29 96 C-30.77039449 93.25283613 -32.06291844 91.46854078 -35 90 C-37.34770651 89.89744189 -39.69840417 89.86154364 -42.04833984 89.85473633 C-42.77372452 89.85137772 -43.49910919 89.8480191 -44.24647522 89.84455872 C-46.65131327 89.83503768 -49.05608176 89.83310496 -51.4609375 89.83203125 C-53.13001535 89.82881921 -54.79909292 89.82545517 -56.46817017 89.82194519 C-59.97032321 89.81595085 -63.47245156 89.81410558 -66.97460938 89.81469727 C-71.46271877 89.81479885 -75.95066981 89.80115234 -80.43874168 89.78392506 C-83.88740771 89.77280672 -87.33603545 89.77077802 -90.78471756 89.77130699 C-92.43932261 89.7701264 -94.09392864 89.76570022 -95.74851608 89.75797462 C-98.06341382 89.74817911 -100.37796784 89.75105106 -102.69287109 89.75708008 C-104.01032318 89.75565506 -105.32777527 89.75423004 -106.68515015 89.75276184 C-109.80068293 89.98513393 -111.47414426 90.22508121 -114 92 Z M-116 140 C-116.06379471 143.70009307 -116.00422966 145.94213647 -113.39978027 148.6856842 C-110.13786778 150.47217406 -107.16633255 150.42738883 -103.54101562 150.40405273 C-102.79583176 150.41091599 -102.05064789 150.41777924 -101.28288269 150.42485046 C-98.8238104 150.44312683 -96.36537552 150.43928037 -93.90625 150.43359375 C-92.19518832 150.4381548 -90.48412847 150.44346015 -88.77307129 150.44947815 C-85.18864495 150.4584106 -81.60444139 150.45598424 -78.02001953 150.44604492 C-73.42636903 150.43454833 -68.83348644 150.45477617 -64.23993683 150.48396206 C-60.70716467 150.50230556 -57.17457723 150.50203545 -53.64176941 150.49632454 C-51.94808372 150.49617113 -50.25438566 150.50223149 -48.56074524 150.51461601 C-46.19300084 150.52949184 -43.82668404 150.51887608 -41.45898438 150.50170898 C-40.409972 150.51621094 -40.409972 150.51621094 -39.33976746 150.53100586 C-35.98161691 150.48001125 -34.27314409 150.21238837 -31.58850098 148.12489319 C-29.73118678 145.6404161 -29.15471909 144.09438182 -29 141 C-29.7847009 138.50322441 -30.45016658 137.37076281 -32.62257385 135.90586853 C-35.85670357 134.67357101 -38.93831345 134.69689879 -42.35131836 134.69360352 C-43.08514236 134.68528 -43.81896637 134.67695648 -44.57502747 134.66838074 C-46.99668711 134.64431876 -49.41807731 134.63551414 -51.83984375 134.62890625 C-53.52608826 134.61993821 -55.21233195 134.61081633 -56.89857483 134.60154724 C-60.43167046 134.58506589 -63.96467141 134.57735849 -67.49780273 134.57446289 C-72.02194384 134.56907471 -76.54519392 134.53137383 -81.06908321 134.48571873 C-84.55126692 134.45595941 -88.03323554 134.44873962 -91.51553535 134.44773674 C-93.18330537 134.44353347 -94.85107597 134.43109477 -96.51872063 134.41021919 C-98.85290806 134.38332143 -101.18502316 134.38812302 -103.51928711 134.40063477 C-104.20568268 134.38580048 -104.89207825 134.37096619 -105.59927368 134.35568237 C-110.71107003 134.43359715 -112.94961929 135.97184262 -116 140 Z " fill="#11AAFF" transform="translate(221,32)"/>
<path d="M0 0 C3.49722962 2.45550165 4.74406399 4.06766168 5.875 8.1875 C4.4913468 14.21627465 0.30802097 17.74190643 -4 22 C-5.33386398 23.33280247 -6.66728153 24.66605209 -8 26 C-6.9314679 26.00364563 -5.86293579 26.00729126 -4.76202393 26.01104736 C5.30275547 26.04797184 15.36722819 26.10571651 25.43177414 26.18390274 C30.6062218 26.22342963 35.78049796 26.25559252 40.95507812 26.27099609 C45.94789187 26.28612836 50.94023426 26.32051275 55.93283844 26.36830902 C57.83859411 26.38315827 59.74441707 26.39104304 61.65023041 26.39188385 C64.31778856 26.39424463 66.98403465 26.42125154 69.65136719 26.45410156 C70.8360408 26.44655602 70.8360408 26.44655602 72.04464722 26.43885803 C75.59424691 26.50659062 77.60427933 26.697059 80.4631958 28.88568115 C82.31160209 31.42869883 82.92491007 32.84622299 83 36 C80.72289157 41.63855422 80.72289157 41.63855422 78 43 C75.28522685 43.1225329 72.59442994 43.18570817 69.87841797 43.20532227 C69.03931885 43.21522186 68.20021973 43.22512146 67.33569336 43.23532104 C64.55455371 43.26697792 61.77339696 43.29171 58.9921875 43.31640625 C57.06690012 43.33697216 55.14161729 43.35796854 53.21633911 43.37937927 C48.14304282 43.43463741 43.06970553 43.48403017 37.99633789 43.53222656 C32.82174012 43.58241429 27.64720206 43.63811458 22.47265625 43.69335938 C12.31515515 43.8009867 2.15760226 43.9024215 -8 44 C-7.22914063 44.75925781 -6.45828125 45.51851563 -5.6640625 46.30078125 C-4.65090904 47.30455366 -3.63789552 48.30846732 -2.625 49.3125 C-2.11710937 49.81201172 -1.60921875 50.31152344 -1.0859375 50.82617188 C4.88135272 56.75420361 4.88135272 56.75420361 5.375 61.9375 C5.27840517 64.85144391 5.04439756 65.92600406 3.5 68.5 C0.67245453 70.19652728 -1.58219244 70.75533225 -4.8894043 70.56323242 C-7.42275959 69.88718261 -8.59261779 68.94625066 -10.51953125 67.17578125 C-11.21224121 66.5413208 -11.90495117 65.90686035 -12.61865234 65.25317383 C-13.40449707 64.50962646 -14.1903418 63.7660791 -15 63 C-15.91861816 62.13592529 -16.83723633 61.27185059 -17.78369141 60.3815918 C-20.34115602 57.95799369 -22.86428508 55.50146708 -25.37524414 53.02978516 C-26.42316464 52.00364515 -27.47731274 50.98382929 -28.53735352 49.97021484 C-30.09047908 48.48411866 -31.62286967 46.97913217 -33.15234375 45.46875 C-34.05976318 44.58638672 -34.96718262 43.70402344 -35.90209961 42.79492188 C-38.46752803 39.3771371 -38.98832186 37.25683191 -39 33 C-37.08651806 28.39063069 -33.37519326 25.1004607 -29.87109375 21.640625 C-29.28078873 21.0507782 -28.6904837 20.4609314 -28.08229065 19.85321045 C-26.83986248 18.61379137 -25.59501677 17.37679149 -24.34790039 16.14208984 C-22.43509465 14.2476177 -20.53048928 12.34518767 -18.62695312 10.44140625 C-17.41713887 9.23650485 -16.20686822 8.0320615 -14.99609375 6.828125 C-14.42523544 6.25837952 -13.85437714 5.68863403 -13.26622009 5.10162354 C-8.70157766 0.59185261 -6.54708373 -0.66580513 0 0 Z " fill="#436CFF" transform="translate(358,221)"/>
</svg>
